<svg id="Слой_1" data-name="Слой 1" xmlns="http://www.w3.org/2000/svg" viewBox="0 0 1680 471"><defs><style>.cls-1{fill:#004a8f;}</style></defs><path class="cls-1" d="M786.41,4.1A30.13,30.13,0,0,1,816.5,34.19V436.33a30.13,30.13,0,0,1-30.09,30.09H34.12A30.13,30.13,0,0,1,4,436.33V34.19A30.13,30.13,0,0,1,34.12,4.1H786.41m0-4.1H34.12A34.2,34.2,0,0,0-.08,34.19V436.33a34.2,34.2,0,0,0,34.2,34.19H786.41a34.19,34.19,0,0,0,34.19-34.19V34.19A34.19,34.19,0,0,0,786.41,0Z"/><path class="cls-1" d="M1645.73,4.79a30.13,30.13,0,0,1,30.09,30.09V437a30.13,30.13,0,0,1-30.09,30.09H893.44A30.13,30.13,0,0,1,863.35,437V34.88A30.13,30.13,0,0,1,893.44,4.79h752.29m0-4.11H893.44a34.2,34.2,0,0,0-34.2,34.2V437a34.2,34.2,0,0,0,34.2,34.2h752.29a34.2,34.2,0,0,0,34.19-34.2V34.88A34.2,34.2,0,0,0,1645.73.68Z"/><path class="cls-1" d="M187.49,323v-7.14l14.26-14.74c43-42.08,61.83-63.72,61.83-90.35,0-17.6-7.37-35-33.53-35-14.74,0-26.16,7.61-32.81,13.32l-4.52-7.85a58.54,58.54,0,0,1,39.47-15.45c32.1,0,43,24.25,43,42.56,0,30.43-22.12,54.92-60.87,93.21L203.42,312.8v.48h76.09V323Z"/><path class="cls-1" d="M399.58,243.61c0,55.4-20,82-50.88,82-24,0-46.37-23.54-47.08-79.18,0-56.35,24.73-80.6,50.65-80.6C379.61,165.86,399.58,190.11,399.58,243.61Zm-86.31,3.09c0,43,14.74,69.43,37.09,69.43,25.68,0,37.33-29.25,37.33-71.33,0-40.42-10.93-69.67-37.09-69.67C329.44,175.13,313.27,201.05,313.27,246.7Z"/><path class="cls-1" d="M515.62,243.61c0,55.4-20,82-50.89,82-24,0-46.36-23.54-47.08-79.18,0-56.35,24.73-80.6,50.65-80.6C495.64,165.86,515.62,190.11,515.62,243.61ZM429.3,246.7c0,43,14.75,69.43,37.1,69.43,25.68,0,37.33-29.25,37.33-71.33,0-40.42-10.94-69.67-37.09-69.67C445.47,175.13,429.3,201.05,429.3,246.7Z"/><path class="cls-1" d="M631.65,243.61c0,55.4-20,82-50.88,82-24,0-46.37-23.54-47.08-79.18,0-56.35,24.73-80.6,50.64-80.6C611.68,165.86,631.65,190.11,631.65,243.61Zm-86.31,3.09c0,43,14.74,69.43,37.09,69.43,25.68,0,37.33-29.25,37.33-71.33,0-40.42-10.94-69.67-37.09-69.67C561.51,175.13,545.34,201.05,545.34,246.7Z"/><path class="cls-1" d="M216.63,101v4.21H201v34.67h-5V101Z"/><path class="cls-1" d="M252.16,120.07c0,13.38-8.13,20.47-18,20.47-10.27,0-17.48-8-17.48-19.72,0-12.35,7.68-20.42,18.06-20.42C245.3,100.4,252.16,108.53,252.16,120.07ZM222,120.7c0,8.31,4.5,15.75,12.4,15.75s12.46-7.33,12.46-16.15c0-7.73-4-15.8-12.4-15.8S222,112.17,222,120.7Z"/><path class="cls-1" d="M284.06,101v34.78l3.4.12-.34,13.32h-3.93l-.34-9.34H258.34l-.35,9.34h-3.92l-.35-13.32,2.94-.12a45.72,45.72,0,0,0,3.81-8.53c1.33-4.5,1.85-9.69,1.85-16.38V101ZM267,112.51a53.3,53.3,0,0,1-2,15.86,37.86,37.86,0,0,1-3.18,7.39H279V105.19H267Z"/><path class="cls-1" d="M339.26,120.07c0,13.38-8.14,20.47-18.06,20.47-10.26,0-17.47-8-17.47-19.72,0-12.35,7.67-20.42,18-20.42C332.39,100.4,339.26,108.53,339.26,120.07Zm-30.17.63c0,8.31,4.5,15.75,12.4,15.75S334,129.12,334,120.3c0-7.73-4-15.8-12.4-15.8S309.09,112.17,309.09,120.7Z"/><path class="cls-1" d="M372.94,138.64a24.77,24.77,0,0,1-10.27,1.9c-10.95,0-19.2-7-19.2-19.72,0-12.17,8.25-20.42,20.3-20.42,4.85,0,7.9,1,9.23,1.73l-1.21,4.09a18.38,18.38,0,0,0-7.85-1.61c-9.11,0-15.17,5.83-15.17,16,0,9.52,5.48,15.64,14.94,15.64a20.08,20.08,0,0,0,8.19-1.62Z"/><path class="cls-1" d="M384.25,101V117.3h18.8V101h5.07v38.88h-5.07V121.68h-18.8v18.23h-5V101Z"/><path class="cls-1" d="M450.06,120.07c0,13.38-8.14,20.47-18.06,20.47-10.26,0-17.47-8-17.47-19.72,0-12.35,7.67-20.42,18.05-20.42C443.19,100.4,450.06,108.53,450.06,120.07Zm-30.17.63c0,8.31,4.5,15.75,12.4,15.75s12.46-7.33,12.46-16.15c0-7.73-4-15.8-12.4-15.8S419.89,112.17,419.89,120.7Z"/><path class="cls-1" d="M456.57,101.55a49,49,0,0,1,9.17-.8c5,0,8.25.86,10.67,2.82a8.16,8.16,0,0,1,3.24,6.87c0,3.74-2.49,7-6.58,8.53v.12c3.69.92,8,4,8,9.74a10.48,10.48,0,0,1-3.29,7.79c-2.71,2.48-7.1,3.63-13.44,3.63a59,59,0,0,1-7.79-.46Zm5,15.92h4.56c5.3,0,8.42-2.77,8.42-6.51,0-4.56-3.46-6.35-8.54-6.35a21,21,0,0,0-4.44.35Zm0,18.63a26,26,0,0,0,4.21.23c5.19,0,10-1.9,10-7.55,0-5.31-4.56-7.5-10-7.5h-4.15Z"/><path class="cls-1" d="M494.12,127.68l-4,12.23h-5.19L498.1,101h6.06l13.26,38.88h-5.36l-4.15-12.23Zm12.75-3.92-3.81-11.19c-.86-2.54-1.44-4.85-2-7.09h-.11c-.58,2.3-1.21,4.67-2,7l-3.81,11.25Z"/><path class="cls-1" d="M528.15,101V117.3H547V101H552v38.88H547V121.68H528.15v18.23h-5V101Z"/><path class="cls-1" d="M565.47,101v16.39c0,6.11-.12,11.24-.46,16.43l.11.06c2-4,4.39-8.25,7.21-12.86l12.58-20h5v38.88h-4.73V123.36c0-6.29.06-10.91.47-15.81l-.18-.06a117.09,117.09,0,0,1-7.21,13.1L566.1,139.91h-5.36V101Z"/><path class="cls-1" d="M595.17,139.91a24.37,24.37,0,0,0,1.56-3.52c1.67-4.44,2.71-9.86,5.88-13a7.94,7.94,0,0,1,3.23-2v-.17c-4.78-.81-8.59-4.27-8.59-9.57a9.85,9.85,0,0,1,3.58-7.9c2.42-2,6.23-3,11.13-3a49.52,49.52,0,0,1,9.28.8v38.36h-5V123.07h-3.7c-2.42,0-4.21.52-5.59,1.9-2.65,2.71-3.75,8.42-5.13,12.11a26.42,26.42,0,0,1-1.27,2.83Zm21.06-34.78a19.07,19.07,0,0,0-4.73-.52c-5,0-9.17,1.9-9.17,7.27,0,4.67,4.15,7.38,9.63,7.38,1.67,0,3.29,0,4.27-.06Z"/><path class="cls-1" d="M999.69,101.5a57.4,57.4,0,0,1,9.63-.75c5,0,8.59,1.15,10.9,3.23a10.42,10.42,0,0,1,3.41,8.13,11.46,11.46,0,0,1-3,8.31c-2.66,2.82-7,4.26-11.89,4.26a17.12,17.12,0,0,1-4-.34v15.57h-5Zm5,18.74a16.68,16.68,0,0,0,4.15.41c6.06,0,9.75-3,9.75-8.31,0-5.13-3.64-7.61-9.17-7.61a21.08,21.08,0,0,0-4.73.4Z"/><path class="cls-1" d="M1050.5,121.68h-15.11v14h16.84v4.21h-21.86V101h21v4.21h-16v12.28h15.11Z"/><path class="cls-1" d="M1065,127.68l-4,12.23h-5.19L1069,101h6l13.27,38.87H1083l-4.16-12.23Zm12.74-3.92-3.8-11.19c-.87-2.54-1.44-4.84-2-7.09h-.12c-.57,2.3-1.21,4.67-2,7l-3.8,11.25Z"/><path class="cls-1" d="M1121.56,101v38.87h-5.07V105.25h-12.87V117c0,8.42-.34,17.82-5.82,21.52a11.69,11.69,0,0,1-5.94,1.84l-.64-4a8.32,8.32,0,0,0,4.1-2.07c3.11-3.06,3.4-10.62,3.4-16.84V101Z"/><path class="cls-1" d="M1135,101v16.38c0,6.11-.11,11.24-.46,16.43l.11.06c2-4,4.39-8.25,7.21-12.86l12.58-20h5v38.87h-4.73V123.36c0-6.29,0-10.9.46-15.81l-.17,0a121.23,121.23,0,0,1-7.21,13.09l-12.17,19.32h-5.37V101Z"/><path class="cls-1" d="M1166.72,103.34A18.51,18.51,0,0,1,1177,100.4c6.75,0,11.42,3.52,11.42,9.52,0,4.79-3.46,8.42-8,9.46v.11c5.48.58,9.46,4.15,9.46,9.75,0,8.07-7,11.3-14.07,11.3a19.88,19.88,0,0,1-10.15-2.53l1.32-3.93a18.77,18.77,0,0,0,8.71,2.37c5.77,0,8.94-3.12,8.94-7.38,0-5.83-5.59-7.5-10.55-7.5h-2.31v-3.81h2.31c5.13,0,9.11-3.17,9.11-7.15s-2.77-6.11-7-6.11a16,16,0,0,0-8.07,2.53Z"/><path class="cls-1" d="M1229.36,120.07c0,13.38-8.13,20.47-18,20.47-10.27,0-17.48-8-17.48-19.72,0-12.34,7.67-20.42,18.06-20.42C1222.5,100.4,1229.36,108.53,1229.36,120.07Zm-30.16.63c0,8.31,4.49,15.75,12.4,15.75s12.46-7.33,12.46-16.15c0-7.73-4-15.8-12.41-15.8S1199.2,112.17,1199.2,120.7Z"/><path class="cls-1" d="M1235.88,101.55a48.79,48.79,0,0,1,9.17-.8c5,0,8.25.86,10.67,2.82a8.16,8.16,0,0,1,3.23,6.87c0,3.75-2.48,7-6.57,8.53v.12c3.69.92,8,4,8,9.75a10.44,10.44,0,0,1-3.29,7.78c-2.71,2.48-7.09,3.64-13.43,3.64a56.7,56.7,0,0,1-7.79-.47Zm5,15.92h4.55c5.31,0,8.42-2.76,8.42-6.51,0-4.56-3.46-6.35-8.53-6.35a20.84,20.84,0,0,0-4.44.35Zm0,18.63a26,26,0,0,0,4.21.23c5.19,0,10-1.9,10-7.55,0-5.31-4.56-7.5-10-7.5h-4.15Z"/><path class="cls-1" d="M1273.43,127.68l-4,12.23h-5.19L1277.41,101h6l13.27,38.87h-5.36l-4.16-12.23Zm12.74-3.92-3.8-11.19c-.87-2.54-1.44-4.84-2-7.09h-.12c-.57,2.3-1.21,4.67-2,7l-3.8,11.25Z"/><path class="cls-1" d="M1307.46,101V117.3h18.8V101h5.08v38.87h-5.08V121.68h-18.8v18.23h-5V101Z"/><path class="cls-1" d="M1373.27,120.07c0,13.38-8.13,20.47-18.06,20.47-10.26,0-17.47-8-17.47-19.72,0-12.34,7.67-20.42,18-20.42C1366.4,100.4,1373.27,108.53,1373.27,120.07Zm-30.17.63c0,8.31,4.5,15.75,12.4,15.75S1368,129.12,1368,120.3c0-7.73-4-15.8-12.4-15.8S1343.1,112.17,1343.1,120.7Z"/><path class="cls-1" d="M1413.81,101v4.21H1397v10.44a41.91,41.91,0,0,1,4.79-.29,18.43,18.43,0,0,1,10,2.59,10.68,10.68,0,0,1,5,9.52,11.43,11.43,0,0,1-3.23,8.42c-3.17,3.11-8.42,4.33-13.72,4.33a57.26,57.26,0,0,1-7.85-.47V101Zm-16.78,35a22,22,0,0,0,4.21.28c3.12,0,6.29-1,8.19-3a8,8,0,0,0,2.14-5.7,7.28,7.28,0,0,0-3.18-6.35,13,13,0,0,0-7.38-2c-1.15,0-2.71.11-4,.23Z"/><path class="cls-1" d="M1456,120.07c0,13.38-8.14,20.47-18.06,20.47-10.26,0-17.47-8-17.47-19.72,0-12.34,7.67-20.42,18-20.42C1449.17,100.4,1456,108.53,1456,120.07Zm-30.17.63c0,8.31,4.5,15.75,12.4,15.75s12.46-7.33,12.46-16.15c0-7.73-4-15.8-12.4-15.8S1425.87,112.17,1425.87,120.7Z"/><path class="cls-1" d="M1487.87,101v38.87h-5.07V105.25h-12.86V117c0,8.42-.35,17.82-5.83,21.52a11.69,11.69,0,0,1-5.94,1.84l-.63-4a8.33,8.33,0,0,0,4.09-2.07c3.11-3.06,3.4-10.62,3.4-16.84V101Z"/><path class="cls-1" d="M1516.71,121.68H1501.6v14h16.84v4.21h-21.86V101h21v4.21h-16v12.28h15.11Z"/><path class="cls-1" d="M1545.09,121.68H1530v14h16.84v4.21H1525V101h21v4.21h-16v12.28h15.11Z"/><path class="cls-1" d="M1171.71,359.14V398h-5V363.35h-18.06V398h-5V359.14Z"/><path class="cls-1" d="M1180.48,359.6a58.59,58.59,0,0,1,9.63-.75c5,0,8.6,1.16,10.9,3.23a10.46,10.46,0,0,1,3.41,8.14,11.43,11.43,0,0,1-3,8.3c-2.65,2.83-7,4.27-11.88,4.27a17.17,17.17,0,0,1-4-.35V398h-5Zm5,18.75a16.73,16.73,0,0,0,4.15.4c6.06,0,9.75-2.94,9.75-8.3,0-5.14-3.63-7.62-9.17-7.62a21,21,0,0,0-4.73.41Z"/><path class="cls-1" d="M1243.93,378.18c0,13.38-8.14,20.47-18.06,20.47-10.26,0-17.47-8-17.47-19.72,0-12.35,7.67-20.42,18-20.42C1237.06,358.51,1243.93,366.64,1243.93,378.18Zm-30.17.63c0,8.31,4.5,15.75,12.4,15.75s12.46-7.33,12.46-16.15c0-7.73-4-15.81-12.4-15.81S1213.76,370.27,1213.76,378.81Z"/><path class="cls-1" d="M1270.57,379.79h-15.11v14h16.84V398h-21.86V359.14h21v4.21h-16v12.29h15.11Z"/><path class="cls-1" d="M1283.78,359.14v17.25h1.56l13.32-17.25h6.06L1290,377c6.4.87,8.88,4.79,10.9,10a101.62,101.62,0,0,0,4.27,11h-5.42a69,69,0,0,1-3.52-9.17c-1.79-5.14-4.27-8.65-10.84-8.65h-1.62V398h-5V359.14Z"/><path class="cls-1" d="M1319.14,363.41h-11.83v-4.27h28.78v4.27h-11.88V398h-5.07Z"/><path class="cls-1" d="M1371.63,378.18c0,13.38-8.14,20.47-18.06,20.47-10.26,0-17.47-8-17.47-19.72,0-12.35,7.67-20.42,18.05-20.42C1364.76,358.51,1371.63,366.64,1371.63,378.18Zm-30.17.63c0,8.31,4.5,15.75,12.4,15.75s12.46-7.33,12.46-16.15c0-7.73-4-15.81-12.4-15.81S1341.46,370.27,1341.46,378.81Z"/><path class="cls-1" d="M1378.14,359.66a48.76,48.76,0,0,1,9.17-.81c5,0,8.25.87,10.67,2.83a8.15,8.15,0,0,1,3.23,6.86c0,3.75-2.48,7-6.57,8.54v.12c3.69.92,8,4,8,9.74a10.48,10.48,0,0,1-3.29,7.79c-2.71,2.48-7.1,3.63-13.44,3.63a59,59,0,0,1-7.79-.46Zm5,15.92h4.56c5.3,0,8.42-2.77,8.42-6.52,0-4.55-3.46-6.34-8.54-6.34a22,22,0,0,0-4.44.34Zm0,18.63a27.18,27.18,0,0,0,4.21.23c5.19,0,10-1.9,10-7.55,0-5.31-4.56-7.5-10-7.5h-4.15Z"/><path class="cls-1" d="M1081.91,240.52c-18.55-8.09-26.15-21.64-26.15-35,0-23.31,19.26-39.71,44.22-39.71,25.92,0,40.9,17.35,40.9,36.85,0,13.08-6.18,27.82-27.11,37.33v1c21.64,8.56,32.58,23.07,32.58,40.9,0,26.16-22.59,43.75-48.51,43.75-27.58,0-48-17.59-48-41.13,0-20,12.13-34.48,32.34-43Zm53,43c0-21.88-15-31.63-40-38.76-21.88,6.42-33.53,20.45-33.53,37.33-1,18.31,12.84,34,36.38,34C1120.43,316.13,1134.94,302.58,1134.94,283.56Zm-68-79.66c0,18.55,13.32,27.82,34.24,33,16.17-5.7,28.3-16.17,28.3-33.29,0-13.79-8.56-28.53-30.68-28.53C1078.34,175.13,1066.93,188.45,1066.93,203.9Z"/><path class="cls-1" d="M1263.1,243.61c0,55.4-20,82-50.89,82-24,0-46.36-23.54-47.08-79.18,0-56.35,24.73-80.6,50.65-80.6C1243.12,165.86,1263.1,190.11,1263.1,243.61Zm-86.32,3.09c0,43,14.74,69.43,37.1,69.43,25.68,0,37.33-29.25,37.33-71.33,0-40.42-10.94-69.67-37.1-69.67C1193,175.13,1176.78,201.05,1176.78,246.7Z"/><path class="cls-1" d="M1379.13,243.61c0,55.4-20,82-50.89,82-24,0-46.36-23.54-47.08-79.18,0-56.35,24.73-80.6,50.65-80.6C1359.16,165.86,1379.13,190.11,1379.13,243.61Zm-86.31,3.09c0,43,14.74,69.43,37.09,69.43,25.68,0,37.33-29.25,37.33-71.33,0-40.42-10.94-69.67-37.09-69.67C1309,175.13,1292.82,201.05,1292.82,246.7Z"/><path class="cls-1" d="M1495.16,243.61c0,55.4-20,82-50.88,82-24,0-46.37-23.54-47.08-79.18,0-56.35,24.73-80.6,50.65-80.6C1475.19,165.86,1495.16,190.11,1495.16,243.61Zm-86.31,3.09c0,43,14.74,69.43,37.09,69.43,25.68,0,37.33-29.25,37.33-71.33,0-40.42-10.93-69.67-37.09-69.67C1425,175.13,1408.85,201.05,1408.85,246.7Z"/></svg>