<svg id="Слой_1" data-name="Слой 1" xmlns="http://www.w3.org/2000/svg" viewBox="0 0 550 550"><defs><style>.cls-1{fill:#004a8f;}</style></defs><path class="cls-1" d="M172.46,308.15c-.65-1.5-1.18-3-1.92-4.36-3.67-6.85-9.23-11.36-16.87-12.85s-14.11.69-19.13,6.81c-.08.11-.17.2-.35.41-5.68-6.83-10.86-14-17-20.56L169.75,184l1.22.73c2.75,1.67,5.51,3.32,8.24,5a35.42,35.42,0,0,0,10.5,4c4.45,1.07,9,1.79,13.49,2.48l8.51,1.27a5.24,5.24,0,0,1,.62.19c-.25.36-.46.65-.66,1-4.42,6.35-8.88,12.67-13.24,19.07-2.93,4.3-5.62,8.75-8.14,13.32a21.87,21.87,0,0,0-2.33,6.11A31.74,31.74,0,0,0,187,245a12.79,12.79,0,0,0,2.56,7.67,12.31,12.31,0,0,0,7.87,4.39,33.34,33.34,0,0,0,9.09.11c11.84-1.12,21.85-6.32,30.83-13.84a85.93,85.93,0,0,0,15.82-17.58,2.83,2.83,0,0,1,1.58-1.18c4.49-1.41,9-2.85,13.46-4.29a2,2,0,0,1,1.65.09c15.46,8,30.74,16.28,45.68,25.22,9.89,5.92,19.41,12.42,28.81,19.09,8.34,5.92,16.68,11.84,24.88,18,10.06,7.5,20,15.23,29.52,23.37a18.92,18.92,0,0,1,5.17,7,12.06,12.06,0,0,1,.79,7.44,14.89,14.89,0,0,1-6.28,9.76,13.93,13.93,0,0,1-6.14,2.13,23,23,0,0,1-7.93-.49,6.49,6.49,0,0,1-1.79-.73q-28.64-17.23-57.27-34.5c-2-1.24-4.09-2.49-6.16-3.7a4.22,4.22,0,1,0-4.22,7.32c2.5,1.54,5,3,7.55,4.56q26.08,15.72,52.19,31.42a2.57,2.57,0,0,1,1.41,2.24,21.42,21.42,0,0,1-.88,8.83,15.22,15.22,0,0,1-4.22,6.47,11.92,11.92,0,0,1-5.59,2.64,38.08,38.08,0,0,1-10.49.79,3.11,3.11,0,0,1-1.32-.48l-26.43-15.34Q314.6,334,302,326.69a4.44,4.44,0,0,0-3.62-.62,4.06,4.06,0,0,0-3.06,3.5,3.93,3.93,0,0,0,1.92,4.13c2.51,1.53,5.07,3,7.61,4.45Q326.28,350.6,347.7,363a1.84,1.84,0,0,1,1.06,2.12,28.55,28.55,0,0,1-2.23,8.82,13.33,13.33,0,0,1-2.74,3.95,10.63,10.63,0,0,1-5.83,2.77,38.38,38.38,0,0,1-11,.14,10,10,0,0,1-3.36-1.09q-20-9.71-40-19.41a4.42,4.42,0,0,0-5,.7,4.2,4.2,0,0,0,.86,6.68c.68.39,1.4.71,2.11,1.05L317.1,386l2.43,1.18a4.3,4.3,0,0,1-.33.59,41.84,41.84,0,0,1-8,8.47,21.47,21.47,0,0,1-12.12,4.44,59.4,59.4,0,0,1-16.17-1.37,199.29,199.29,0,0,1-23.65-6.61l-.84-.32c.2-.3.35-.56.53-.8.8-1.1,1.6-2.22,2.43-3.3a19.86,19.86,0,0,0,4.09-13.07A24.79,24.79,0,0,0,245,351.94a35.6,35.6,0,0,0-3.88-.26c-.33,0-.66,0-1.07,0a23.74,23.74,0,0,0-5.48-20A23.36,23.36,0,0,0,215.86,323c.12-.85.27-1.65.34-2.45a22.85,22.85,0,0,0-3.12-14.12c-3.75-6.37-9.16-10.64-16.48-12-8-1.47-14.63.92-19.58,7.56-1.32,1.79-2.62,3.6-3.94,5.39C172.88,307.63,172.67,307.89,172.46,308.15Z"/><path class="cls-1" d="M431.43,275.38c-.23.18-.45.34-.66.52a93.21,93.21,0,0,0-7.92,7.73A67.5,67.5,0,0,1,407,296.54c-1.28.71-2.6,1.34-3.92,2-.47-.37-.88-.68-1.26-1-17-14.38-34.91-27.42-53.11-40.14-6.64-4.64-13.32-9.23-20.12-13.64-10.64-6.91-21.67-13.17-32.83-19.21-7.9-4.28-15.89-8.39-23.82-12.61a5.28,5.28,0,0,0-4.34-.34q-8.56,2.79-17.17,5.49a5.92,5.92,0,0,0-3.31,2.55A75.83,75.83,0,0,1,226,241.24a44.21,44.21,0,0,1-16.81,7,32.43,32.43,0,0,1-9.68.55c-.37-.05-.74-.12-1.1-.2-2-.47-2.84-1.32-2.9-3.4a19.55,19.55,0,0,1,2.1-10,172.73,172.73,0,0,1,10.66-17.07c7.17-10.19,14.46-20.3,21.7-30.45a7.25,7.25,0,0,1,2.29-2,31.68,31.68,0,0,1,7.7-3,100.34,100.34,0,0,1,14.14-2.86c5.24-.69,10.5-1.34,15.77-1.79s10.76-.69,16.15-.92q6.09-.27,12.19-.27A120,120,0,0,1,316,178.18c9,1.32,17.81,3.46,26.65,5.53,4.53,1.06,9.06,2.07,13.66,2.71a38,38,0,0,0,12.63-.45,71.7,71.7,0,0,0,9.49-2.53c.38-.13.78-.24,1.25-.38Z"/><path class="cls-1" d="M70,264.18a3.09,3.09,0,0,1,.56-1.86q5.3-9.4,10.56-18.82l47.55-84.76q3.42-6.09,6.84-12.18a4.94,4.94,0,0,1,.76-1.09,2.37,2.37,0,0,1,3.1-.25c2,1.18,3.91,2.38,5.87,3.58q11.42,7,22.83,14a3.2,3.2,0,0,1,1.81,2.78,3.89,3.89,0,0,1-.61,2q-4,7.13-8,14.25-21.34,38-42.67,76.07-7.11,12.67-14.21,25.36c-.64,1.15-1.45,1.94-2.83,1.75a3.62,3.62,0,0,1-1.4-.56q-10.38-6.31-20.74-12.67l-7.87-4.83A2.82,2.82,0,0,1,70,264.18Z"/><path class="cls-1" d="M480,264.2a3.22,3.22,0,0,1-1.65,2.76q-14.31,8.73-28.6,17.51c-1.77,1.08-3.12.72-4.16-1.13q-8.31-14.79-16.59-29.57l-48.3-86.1c-.1-.18-.21-.35-.3-.54a3,3,0,0,1,1.18-4.18l10.06-6.16,18.1-11.08.79-.48a2.43,2.43,0,0,1,3.66,1c1.15,2,2.26,4,3.38,6l33.32,59.4q14.21,25.31,28.39,50.63A12.94,12.94,0,0,1,480,264.2Z"/><path class="cls-1" d="M155,350.48a11.32,11.32,0,0,1,2.3-7.19q13.17-18,26.3-36a11.33,11.33,0,0,1,4.13-3.74,11.79,11.79,0,0,1,7.8-.77c7,1.47,12.62,8.61,12.44,15.78a11.36,11.36,0,0,1-2.21,6.62q-13.4,18.31-26.8,36.64c-2.8,3.83-6.66,5-11.13,4.15A16.36,16.36,0,0,1,155,351.81C154.92,351.37,155,350.92,155,350.48Z"/><path class="cls-1" d="M216.63,331.48a14.54,14.54,0,0,1,9.62,3.73,16,16,0,0,1,5.56,9.47,12.16,12.16,0,0,1-2.1,9.74q-10.28,14.1-20.49,28.25c-2.57,3.55-6.11,4.78-10.32,4.27-6.6-.8-12.75-6.72-13.58-14.11a12.36,12.36,0,0,1,2.46-9q6.78-9.22,13.52-18.47c2.49-3.4,5-6.75,7.49-10.17a9.17,9.17,0,0,1,6.51-3.63C215.77,331.5,216.25,331.5,216.63,331.48Z"/><path class="cls-1" d="M257,376a11.28,11.28,0,0,1-2.31,7.08c-4.32,5.84-8.68,11.64-12.9,17.54-2.9,4.07-7.29,5.38-12,4.26a16.42,16.42,0,0,1-12.09-13.6,13.1,13.1,0,0,1,.17-4.5,7.84,7.84,0,0,1,1.3-3c4.7-6.49,9.37-13,14.09-19.48a9.63,9.63,0,0,1,8.1-4.09c6,0,10.35,3,13.48,8A14,14,0,0,1,257,376Z"/><path class="cls-1" d="M150.27,299c5,.31,9.2,3,12.18,7.64a14.79,14.79,0,0,1,2.39,8.38,11.25,11.25,0,0,1-2.29,6.79c-3,4-6,8-9,12a8.73,8.73,0,0,1-6.14,3.49c-4.59.64-8.46-1-11.79-4.05a15.79,15.79,0,0,1-5.2-10.09,11.38,11.38,0,0,1,2-8.28q4.32-5.94,8.71-11.82C143.29,300.17,146.24,299,150.27,299Z"/><path class="cls-1" d="M496.35,30A23.68,23.68,0,0,1,520,53.65v442.7A23.68,23.68,0,0,1,496.35,520H53.65A23.68,23.68,0,0,1,30,496.35V53.65A23.68,23.68,0,0,1,53.65,30h442.7m0-30H53.65A53.65,53.65,0,0,0,0,53.65v442.7A53.65,53.65,0,0,0,53.65,550h442.7A53.65,53.65,0,0,0,550,496.35V53.65A53.65,53.65,0,0,0,496.35,0Z"/></svg>