<svg id="Слой_1" data-name="Слой 1" xmlns="http://www.w3.org/2000/svg" viewBox="0 0 550 550"><defs><style>.cls-1{fill:#004a8f;}.cls-2{fill:none;stroke:#004a8f;stroke-miterlimit:10;stroke-width:19.09px;}</style></defs><path class="cls-1" d="M496.35,30A23.68,23.68,0,0,1,520,53.65v442.7A23.68,23.68,0,0,1,496.35,520H53.65A23.68,23.68,0,0,1,30,496.35V53.65A23.68,23.68,0,0,1,53.65,30h442.7m0-30H53.65A53.65,53.65,0,0,0,0,53.65v442.7A53.65,53.65,0,0,0,53.65,550h442.7A53.65,53.65,0,0,0,550,496.35V53.65A53.65,53.65,0,0,0,496.35,0Z"/><path class="cls-1" d="M331.89,367l-20.1,27.86-6.18-11.12c-2-3.62-5.86-4.4-8.59-1.73s-3.32,7.77-1.31,11.4l10.52,18.92a6,6,0,0,0,4.55,3.3h.39a5.54,5.54,0,0,0,4.44-2.51l25.16-34.86a10.12,10.12,0,0,0-.19-11.52C338.13,363.68,334.24,363.79,331.89,367Z"/><path class="cls-1" d="M420.87,137.3a15.06,15.06,0,0,1,15,15V424.18a15.06,15.06,0,0,1-15,15.05H129.13a15.06,15.06,0,0,1-15-15.05V152.35a15.06,15.06,0,0,1,15-15H420.87m0-19.09H129.13A34.13,34.13,0,0,0,95,152.35V424.18a34.14,34.14,0,0,0,34.13,34.14H420.87A34.14,34.14,0,0,0,455,424.18V152.35a34.13,34.13,0,0,0-34.13-34.14Z"/><line class="cls-2" x1="99.11" y1="220.05" x2="450.89" y2="220.05"/><line class="cls-2" x1="99.11" y1="330.89" x2="450.89" y2="330.89"/><line class="cls-2" x1="275" y1="450.26" x2="275" y2="228.58"/><line class="cls-2" x1="361.5" y1="450.74" x2="361.5" y2="229.05"/><line class="cls-2" x1="193.85" y1="450.74" x2="193.85" y2="229.05"/><rect class="cls-1" x="141.04" y="91.68" width="25.58" height="93.79" rx="12.79"/><rect class="cls-1" x="220.62" y="91.68" width="25.58" height="93.79" rx="12.79"/><rect class="cls-1" x="300.2" y="91.68" width="25.58" height="93.79" rx="12.79"/><rect class="cls-1" x="379.78" y="91.68" width="25.58" height="93.79" rx="12.79"/></svg>