<svg id="Слой_1" data-name="Слой 1" xmlns="http://www.w3.org/2000/svg" viewBox="0 0 550 550"><defs><style>.cls-1{fill:#004a8f;}</style></defs><path class="cls-1" d="M291.09,424.85H277.31c-.75-.11-1.5-.27-2.25-.32a149,149,0,0,1-26.77-4,89.9,89.9,0,0,1-21.88-8.14,99.68,99.68,0,0,1-9.35-6.07A29.69,29.69,0,0,1,207,394.5a25.52,25.52,0,0,1-2.54-11.68c.06-1.41,0-2.82,0-4.43-.83,0-1.47,0-2.11,0-4.74-.23-9.51-.25-14.22-.74a125.4,125.4,0,0,1-31-6.9,74.55,74.55,0,0,1-19.32-10.25A38.25,38.25,0,0,1,128,349.82a23.4,23.4,0,0,1-3-12.36q0-85.69,0-171.4a31.8,31.8,0,0,1,.3-4.57c.77-5.47,3.67-9.93,7.55-14A49.81,49.81,0,0,1,144,138.89a91.07,91.07,0,0,1,23-9.14,153.18,153.18,0,0,1,26.22-4.17,147,147,0,0,1,25.35.26,140.22,140.22,0,0,1,22.51,3.82,92.74,92.74,0,0,1,20.93,8,62.13,62.13,0,0,1,10.71,7.42A30.86,30.86,0,0,1,281.61,157a23.86,23.86,0,0,1,1.54,8.66c.13,18.81.07,37.61.07,56.42v1.67c3.87-1.9,7.46-3.78,11.16-5.45a97.77,97.77,0,0,1,18.8-6,153.22,153.22,0,0,1,21.79-3.2,154.91,154.91,0,0,1,23.89-.1,135,135,0,0,1,26.51,4.47c9.5,2.66,18.4,6.37,26.25,12.11A38.68,38.68,0,0,1,422,236.94a20.45,20.45,0,0,1,2.89,10.55c0,28.6,0,57.19.07,85.78,0,6-1.1,11.62-5,16.51a44.65,44.65,0,0,1-5.87,6.49,63.88,63.88,0,0,1-17.53,10.32,101.93,101.93,0,0,1-19.11,5.67c-4.47.87-9,1.51-13.6,2.27,0,3.1.13,6.27,0,9.41-.21,4.06-.84,8-3,11.7a40.66,40.66,0,0,1-12.14,12.68,72.08,72.08,0,0,1-16.38,8.42,124,124,0,0,1-32.5,7.21C296.93,424.23,294,424.55,291.09,424.85Zm56.2-201.92a123.6,123.6,0,0,0-24.89,2.15c-12.14,2.39-23.93,5.61-33.11,14a18.3,18.3,0,0,0-4.7,6.57c-1.89,4.9.83,9,4.27,12.31a42.34,42.34,0,0,0,13,8.18A101,101,0,0,0,337.29,274c7.66.38,15.39.14,23.06-.24a99.6,99.6,0,0,0,22.73-4.07,68.71,68.71,0,0,0,15.05-6.13c3.7-2.11,7.23-4.49,9.77-7.91,2.3-3.1,3.69-6.39,2.25-10.12-1.51-3.93-4.57-6.89-8-9.32a64.21,64.21,0,0,0-19.77-8.83A125.65,125.65,0,0,0,347.29,222.93Zm-61.38,129.8a115.25,115.25,0,0,0,24.91-2.52,120.85,120.85,0,0,0,14.06-3.9c7.72-2.64,14.89-6.11,20-12.54,2.43-3.07,3.21-6.27,2.05-9.84-1.48-4.57-5.21-7.55-9.16-10.15a64.92,64.92,0,0,0-17-7.55,123.73,123.73,0,0,0-32.14-4.91A136.74,136.74,0,0,0,256.25,304a81.57,81.57,0,0,0-20.93,7.1,36.84,36.84,0,0,0-10.3,7.38c-2.36,2.53-3.81,5.21-3.82,8.58,0,5.24,3.4,8.7,7.33,11.66a58.82,58.82,0,0,0,18.28,8.8C258.89,351.26,271.33,352.75,285.91,352.73ZM204.84,190.91A119.23,119.23,0,0,0,234,187.78a118.14,118.14,0,0,0,15.11-4.73,40,40,0,0,0,13.53-8.28c2.52-2.42,4.63-5.06,4.92-8.67.41-5.09-2.59-8.6-6.24-11.65a51.06,51.06,0,0,0-15.86-8.54,116.64,116.64,0,0,0-37.27-6.35c-5.78-.1-11.58.14-17.34.58a101.47,101.47,0,0,0-24.7,4.88c-8.09,2.71-15.71,6.08-21.53,12.35a11.17,11.17,0,0,0-2,12.83C144,173,146.43,175,149,177c5.6,4.31,12.12,6.95,18.92,9A122.76,122.76,0,0,0,204.84,190.91Zm-62.9-.42c-1.11,4-.59,7.69,2.08,10.84a38.66,38.66,0,0,0,5.36,4.82c4.4,3.5,9.6,5.75,15,7.59a113.64,113.64,0,0,0,29.32,5.67,141,141,0,0,0,37.93-2.22c7.2-1.46,14.25-3.4,20.69-6.81a63.84,63.84,0,0,0,9.17-5.73,15.19,15.19,0,0,0,5.51-7,10.12,10.12,0,0,0-.07-7.13c-3.36,1.69-6.48,3.44-9.77,4.86S250.42,198,247,199.1c-12.69,4.08-25.84,5.72-39.19,6.07a151.78,151.78,0,0,1-31.58-2.47,101.69,101.69,0,0,1-27-8.49C146.88,193,144.52,191.8,141.94,190.49Zm80,161.93c-1.65,3.06-.39,8.62,2.46,11.5a46,46,0,0,0,15.88,10.16c11.18,4.49,23,6.56,35.08,7.31a145.63,145.63,0,0,0,24.53-.59,110.79,110.79,0,0,0,23.22-4.89c5.81-1.94,11.43-4.31,16.22-8a64.87,64.87,0,0,0,5.82-5.67c2.23-2.21,2.94-7,1.42-9.9a6.51,6.51,0,0,0-.72.31,96.78,96.78,0,0,1-21.63,9.07A145.07,145.07,0,0,1,288,367a153.57,153.57,0,0,1-29.83-2.12,107.17,107.17,0,0,1-28.64-8.62C227,355,224.47,353.7,222,352.42Zm44.77-133c-19.2,11-40.31,14.62-62.33,14.62s-43.21-3.64-62.74-14.86a46.75,46.75,0,0,0,.05,6.3c.4,2.89,2.43,5,4.54,7a34.87,34.87,0,0,0,11.48,7.35A154.08,154.08,0,0,0,172.67,245a111.57,111.57,0,0,0,24.19,3.52,126.75,126.75,0,0,0,25.32-.94,172.17,172.17,0,0,0,18.62-3.84,53,53,0,0,0,19.21-9.1c1.73-1.35,3.17-3,4.79-4.52A10,10,0,0,0,266.73,219.4Zm-44.9,161.87a9.5,9.5,0,0,0,.18,7.64c2,4.63,6,7.5,10.28,10.06a70.12,70.12,0,0,0,18.81,7.52,126,126,0,0,0,25.3,3.79,143.47,143.47,0,0,0,30-1.5A99.83,99.83,0,0,0,325,404.1c5.59-2,11-4.4,15.46-8.23,1.7-1.46,3.14-3.19,4.7-4.79a9.19,9.19,0,0,0,1.33-9.91,92.35,92.35,0,0,1-18,8.13,130.13,130.13,0,0,1-31.56,6.11A156.55,156.55,0,0,1,254.1,393a100.39,100.39,0,0,1-24.6-7.89C227,383.87,224.45,382.59,221.83,381.27Zm44.92-133C247.57,259.36,226.42,263,204.42,263s-43.23-3.6-62.43-14.71a10.09,10.09,0,0,0-.28,6.29c1.44,5.3,5.79,8.39,10.25,11.19a66.59,66.59,0,0,0,17.78,7.43,122.7,122.7,0,0,0,27,4.24,139.92,139.92,0,0,0,31.8-1.86c8.1-1.46,16-3.48,23.29-7.2a81.21,81.21,0,0,0,8.81-5.45,15.67,15.67,0,0,0,6.3-7.71A9.06,9.06,0,0,0,266.75,248.28ZM142,277.14a10.14,10.14,0,0,0,.34,8c2,4.29,5.73,7.14,9.75,9.55,7.76,4.65,16.39,7.37,25.39,9.18a139.36,139.36,0,0,0,36.81,2.24,5.69,5.69,0,0,0,3-1,62.65,62.65,0,0,1,14.66-8.47,117.29,117.29,0,0,1,31.13-8.24,3.4,3.4,0,0,0,2.27-1.21,17.94,17.94,0,0,0,2.09-4.91,6.67,6.67,0,0,0-.56-5c-4.48,2.1-8.75,4.36-13.24,6.14-11.79,4.68-24.22,7-36.94,7.94a155.87,155.87,0,0,1-38.83-1.79c-10-1.76-19.69-4.36-28.72-8.84C146.78,279.62,144.47,278.41,142,277.14Zm268-3.42c-.67.32-1.09.5-1.49.72-2.07,1.12-4.07,2.36-6.21,3.36a109.85,109.85,0,0,1-25.72,8.11A152.84,152.84,0,0,1,346,288.6a148.25,148.25,0,0,1-32.88-3.77c-9.54-2.26-18.67-5.41-27-10.43-1-.62-1.42-.63-1.73.6-1.21,4.8,1.4,8.31,4.46,11.65a2.61,2.61,0,0,0,1.64.52,142.43,142.43,0,0,1,26.85,3.39c10.86,2.46,21.19,6.08,30.42,12.1a3.17,3.17,0,0,0,1.8.48c6.84-.54,13.71-.88,20.5-1.77a80.47,80.47,0,0,0,23.62-6.76c6.15-2.86,12-6.2,15.47-12.14C410.85,279.66,410.93,277,410,273.72ZM142,305.89c-1.58,4.28-.52,7.95,2.16,11.13a33.09,33.09,0,0,0,9.12,7.23,71.5,71.5,0,0,0,15.17,6.29A113.4,113.4,0,0,0,192,334.82c4.11.33,8.24.4,12.43.59.59-5.06-.91-10,1.35-14.75a152.87,152.87,0,0,1-33.23-3.19A98.1,98.1,0,0,1,142,305.89Zm-.36,28.74a35.7,35.7,0,0,0-.24,5.21c.33,3.34,2.36,5.9,4.83,8.21,5.08,4.73,11.33,7.69,17.92,10,12.43,4.35,25.41,5.95,38.62,6.2.52,0,1-.05,1.59-.08v-14.5C182.28,349.25,161.11,346,141.61,334.63Zm222.27-3.58c.94-.05,1.59,0,2.24-.13,9.22-1.35,18.27-3.28,26.72-7.11,6.6-3,12.83-6.33,16.47-12.75,1.58-2.79,1.59-5.38.59-8.48-14.82,8.87-31.2,12.54-48.4,14.27C363.75,321.45,364.13,326.13,363.88,331.05Zm0,28.94c1.27-.15,2.34-.25,3.41-.41a103,103,0,0,0,22-5.47c5.61-2.15,11.06-4.61,15.34-8.73a47.78,47.78,0,0,0,4.59-5.63c1.92-2.55,1.56-5.27.56-8.26-.61.33-1,.58-1.41.77-4.85,2.27-9.56,4.87-14.58,6.73A115.07,115.07,0,0,1,365,345.33c-1,.09-1.15.5-1.14,1.29.05,1.88,0,3.77,0,5.65Z"/><path class="cls-1" d="M496.35,30A23.68,23.68,0,0,1,520,53.65v442.7A23.68,23.68,0,0,1,496.35,520H53.65A23.68,23.68,0,0,1,30,496.35V53.65A23.68,23.68,0,0,1,53.65,30h442.7m0-30H53.65A53.65,53.65,0,0,0,0,53.65v442.7A53.65,53.65,0,0,0,53.65,550h442.7A53.65,53.65,0,0,0,550,496.35V53.65A53.65,53.65,0,0,0,496.35,0Z"/></svg>