<svg id="Слой_1" data-name="Слой 1" xmlns="http://www.w3.org/2000/svg" viewBox="0 0 550 550"><defs><style>.cls-1{fill:#004a8f;}</style></defs><path class="cls-1" d="M496.35,30A23.68,23.68,0,0,1,520,53.65v442.7A23.68,23.68,0,0,1,496.35,520H53.65A23.68,23.68,0,0,1,30,496.35V53.65A23.68,23.68,0,0,1,53.65,30h442.7m0-30H53.65A53.65,53.65,0,0,0,0,53.65v442.7A53.65,53.65,0,0,0,53.65,550h442.7A53.65,53.65,0,0,0,550,496.35V53.65A53.65,53.65,0,0,0,496.35,0Z"/><path class="cls-1" d="M327.92,398.53,211,270.84h-1V398.53h-40.6V151.47h40.6V268.06h1L318.55,151.47h51.36L257.82,267,380.66,398.53Z"/><path class="cls-1" d="M399.48,182.25V169.53L411.1,159c19.63-17.56,29.17-27.66,29.45-38.17,0-7.32-4.42-13.13-14.79-13.13-7.75,0-14.52,3.87-19.23,7.47l-5.94-15.08c6.77-5.11,17.28-9.26,29.45-9.26,20.33,0,31.53,11.89,31.53,28.21,0,15.07-10.92,27.1-23.92,38.72l-8.3,6.91V165h33.88v17.28Z"/></svg>