<svg id="Слой_1" data-name="Слой 1" xmlns="http://www.w3.org/2000/svg" viewBox="0 0 1680 541"><defs><style>.cls-1,.cls-6{fill:#004a8f;}.cls-2{fill:#fff;}.cls-3,.cls-4,.cls-5,.cls-7{fill:none;}.cls-3,.cls-4,.cls-5,.cls-6,.cls-7{stroke:#fff;}.cls-3,.cls-4,.cls-5,.cls-6{stroke-miterlimit:10;}.cls-3{stroke-width:3.78px;}.cls-4{stroke-width:3.11px;}.cls-5{stroke-width:2.37px;}.cls-6{stroke-width:3.26px;}.cls-7{stroke-linecap:round;stroke-linejoin:round;stroke-width:3.6px;}</style></defs><rect class="cls-1" width="1680" height="541"/><path class="cls-2" d="M494,6.17a39,39,0,0,1,39,39V497.74a39,39,0,0,1-39,39H41.47a39,39,0,0,1-39-39V45.18a39,39,0,0,1,39-39H494M494,4H41.47A41.18,41.18,0,0,0,.29,45.18V497.74a41.18,41.18,0,0,0,41.18,41.18H494a41.18,41.18,0,0,0,41.18-41.18V45.18A41.18,41.18,0,0,0,494,4Z"/><path class="cls-2" d="M83.26,422.92v35.72H78.65V426.79H62.07v31.85H57.46V422.92Z"/><path class="cls-2" d="M91.32,423.34a53.73,53.73,0,0,1,8.85-.68c4.56,0,7.9,1,10,3a9.62,9.62,0,0,1,3.13,7.47,10.54,10.54,0,0,1-2.76,7.64c-2.44,2.59-6.41,3.92-10.92,3.92a16.18,16.18,0,0,1-3.71-.32v14.31H91.32Zm4.61,17.23a15.75,15.75,0,0,0,3.82.37c5.56,0,9-2.7,9-7.63,0-4.72-3.34-7-8.43-7a19.59,19.59,0,0,0-4.35.37Z"/><path class="cls-2" d="M149.62,440.41c0,12.29-7.47,18.81-16.59,18.81-9.43,0-16-7.31-16-18.12,0-11.34,7-18.76,16.58-18.76C143.31,422.34,149.62,429.81,149.62,440.41ZM121.9,441c0,7.63,4.14,14.47,11.4,14.47s11.44-6.73,11.44-14.84c0-7.1-3.71-14.52-11.39-14.52S121.9,433.15,121.9,441Z"/><path class="cls-2" d="M185.55,443c-.26-5-.58-11-.53-15.42h-.15c-1.22,4.19-2.71,8.69-4.51,13.57l-6.31,17.33h-3.49l-5.78-17c-1.7-5-3.13-9.65-4.13-13.89h-.11c-.1,4.45-.37,10.44-.69,15.79l-.95,15.32h-4.4L157,422.92h5.88L169,440.2c1.48,4.39,2.7,8.32,3.6,12h.16c.9-3.61,2.17-7.53,3.76-12l6.36-17.28h5.88L191,458.64h-4.5Z"/><path class="cls-2" d="M228.59,440.41c0,12.29-7.47,18.81-16.59,18.81-9.43,0-16.05-7.31-16.05-18.12,0-11.34,7-18.76,16.58-18.76C222.28,422.34,228.59,429.81,228.59,440.41Zm-27.72.58c0,7.63,4.14,14.47,11.4,14.47s11.44-6.73,11.44-14.84c0-7.1-3.71-14.52-11.39-14.52S200.87,433.15,200.87,441Z"/><path class="cls-2" d="M259.54,457.47a22.65,22.65,0,0,1-9.43,1.75c-10.07,0-17.65-6.41-17.65-18.12,0-11.18,7.58-18.76,18.66-18.76a19,19,0,0,1,8.47,1.59l-1.11,3.76a16.78,16.78,0,0,0-7.21-1.48c-8.37,0-13.93,5.35-13.93,14.73,0,8.74,5,14.36,13.72,14.36a18.51,18.51,0,0,0,7.53-1.48Z"/><path class="cls-2" d="M267.6,422.92l7.1,15.26c.9,2.12,1.75,4.24,2.6,6.31h.1c.64-1.8,1.33-3.92,2.23-6.41l5.56-15.16h4.88l-7.47,18.39c-2,4.82-4.19,10.28-6.68,13.57-2.33,2.91-4.93,4.39-8.11,4.39a8.14,8.14,0,0,1-2.6-.31l.48-3.77a6.3,6.3,0,0,0,1.7.16c3.71,0,5.88-3.55,7-6.14a2.06,2.06,0,0,0-.16-2.13l-11.87-24.16Z"/><path class="cls-2" d="M293.89,423.4a44.12,44.12,0,0,1,8.42-.74c4.61,0,7.58.79,9.81,2.59a7.5,7.5,0,0,1,3,6.31c0,3.44-2.27,6.46-6,7.84v.11c3.4.84,7.37,3.65,7.37,8.95a9.64,9.64,0,0,1-3,7.16C310.9,457.9,306.87,459,301,459a53.85,53.85,0,0,1-7.15-.43ZM298.5,438h4.18c4.88,0,7.74-2.54,7.74-6,0-4.19-3.18-5.83-7.84-5.83a19.87,19.87,0,0,0-4.08.31Zm0,17.12a24.51,24.51,0,0,0,3.87.21c4.77,0,9.16-1.75,9.16-6.94,0-4.88-4.18-6.89-9.22-6.89H298.5Z"/><path class="cls-2" d="M341.11,441.89H327.22v12.88H342.7v3.87H322.61V422.92H341.9v3.87H327.22v11.29h13.89Z"/><path class="cls-2" d="M353.3,422.92v14.94h17.27V422.92h4.67v35.72h-4.67V441.89H353.3v16.75h-4.61V422.92Z"/><path class="cls-2" d="M387.59,422.92V438c0,5.62-.11,10.33-.42,15.1l.1.06c1.8-3.71,4-7.58,6.63-11.82l11.55-18.39h4.61v35.72h-4.35V443.43c0-5.78.06-10,.43-14.52l-.16-.05a108.35,108.35,0,0,1-6.63,12l-11.18,17.76h-4.93V422.92Z"/><path class="cls-2" d="M418.12,423.34a53.63,53.63,0,0,1,8.85-.68c4.56,0,7.89,1,10,3a9.62,9.62,0,0,1,3.13,7.47,10.5,10.5,0,0,1-2.76,7.64c-2.43,2.59-6.41,3.92-10.91,3.92a16.13,16.13,0,0,1-3.71-.32v14.31h-4.61Zm4.61,17.23a15.66,15.66,0,0,0,3.81.37c5.57,0,9-2.7,9-7.63,0-4.72-3.34-7-8.43-7a19.42,19.42,0,0,0-4.34.37Z"/><path class="cls-2" d="M450.92,422.92v13.35a38.62,38.62,0,0,1,4.24-.26c7.37,0,13.78,3.23,13.78,11.18a10.78,10.78,0,0,1-2.75,7.58c-2.92,3.07-7.9,4.19-12.72,4.19a54.15,54.15,0,0,1-7.16-.43V422.92Zm0,32.17a18,18,0,0,0,3.71.26c5.09,0,9.49-2.59,9.49-8,0-5.56-4.77-7.68-9.54-7.68a23.92,23.92,0,0,0-3.66.26Zm26.66-32.17v35.72h-4.66V422.92Z"/><path class="cls-3" d="M414.87,162.43h0c0-.08-.09-.25-.21-.51-1-2.58-4.09-11.15-9.72-35.47C397,92.18,371.56,82.8,368.72,81.85c-9.88-4.64-55.59-25.13-56.05-25.34a3,3,0,0,0-4.27,2.37l-1.87,13.64c-.21,1.1-5.5,26.66-37.14,25.8l-1.5,0c-30.16,0-35.25-24.73-35.43-25.66l-1.9-13.8A3.12,3.12,0,0,0,229,56.62a3.15,3.15,0,0,0-2.73-.11c-.46.21-46.17,20.7-56,25.34-2.85,1-28.31,10.33-36.23,44.6-5.62,24.26-8.67,32.87-9.73,35.45-.11.28-.17.47-.19.53-.88,2.95-3,13,6.29,17.95,8.86,4.7,33.09,14,34.12,14.35a4.64,4.64,0,0,0,.64.17c.41.06,10.1,1.36,14-7,1.48-3.15,3.26-4.89,4.17-5.38a11.37,11.37,0,0,1,.55,4.43c-.15,9.73-1.17,85.45-1.07,96.75a210.41,210.41,0,0,1-1,26.59c-.14,1.69-.26,3.13-.34,4.25-.35,5.33-2.19,18.2-2.79,22-.92,5.94.15,20.1,5.4,24.87a3,3,0,0,0,2,.78h0l83.32-.3,83.34.3h0a3.06,3.06,0,0,0,2.05-.78c5.25-4.77,6.33-18.93,5.4-24.87-.68-4.37-2.46-16.94-2.78-22-.08-1.12-.21-2.54-.34-4.21a209.9,209.9,0,0,1-1-26.73c.1-11.29-.93-86.94-1.08-96.65a11.16,11.16,0,0,1,.55-4.43c.91.49,2.69,2.23,4.17,5.38,3.94,8.34,13.63,7,14.05,7a5.53,5.53,0,0,0,.64-.17c1-.4,25.25-9.65,34.12-14.35C414.85,177.06,417.2,170.35,414.87,162.43Z"/><path class="cls-3" d="M267.12,132.42a52.7,52.7,0,1,0,52.69,52.7A52.77,52.77,0,0,0,267.12,132.42Z"/><path class="cls-2" d="M244.27,195h-8.54V176.08a.72.72,0,0,0-.72-.72h-2.48a.73.73,0,0,0-.73.72v22.31a.73.73,0,0,0,.73.72h11.74a.72.72,0,0,0,.72-.72v-2.71A.72.72,0,0,0,244.27,195Z"/><path class="cls-2" d="M255.77,174.77a8.42,8.42,0,0,0-6.85,3.09,16.56,16.56,0,0,0,0,18.75,8.41,8.41,0,0,0,6.72,3.09,8.32,8.32,0,0,0,6.71-3.11,15,15,0,0,0,2.93-9.33,17.62,17.62,0,0,0-1.4-6.94C262.2,176.68,259.39,174.77,255.77,174.77Zm-.13,20.77c-3.37,0-5.64-3.31-5.64-8.28,0-5.14,2.19-8.34,5.74-8.34,3.31,0,5.54,3.34,5.54,8.32S259,195.54,255.64,195.54Z"/><path class="cls-2" d="M285.34,185.73h-8a.72.72,0,0,0-.73.73V189a.72.72,0,0,0,.73.72h4.93a6.4,6.4,0,0,1-1.26,4.12,4.31,4.31,0,0,1-3.64,1.8c-3.62,0-5.46-2.79-5.46-8.27,0-5.23,2.06-8.49,5.39-8.49a4.68,4.68,0,0,1,2.94,1c.87.68,1.27,1.42,1.69,3.15a.73.73,0,0,0,.72.54H285a.74.74,0,0,0,.55-.24.72.72,0,0,0,.17-.59,9.7,9.7,0,0,0-1.17-3.75,8.29,8.29,0,0,0-7.31-4.23c-5.6,0-9.36,5.12-9.36,12.74,0,4,.94,6.9,3.06,9.42a7.36,7.36,0,0,0,6,2.77,7.87,7.87,0,0,0,4.22-1.18,7.6,7.6,0,0,0,1.56-1.29l.24,1.29a.74.74,0,0,0,.72.59h1.62a.73.73,0,0,0,.73-.72V186.46A.73.73,0,0,0,285.34,185.73Z"/><path class="cls-2" d="M307.25,180.32h0c-1.68-3.64-4.48-5.55-8.11-5.55a8.39,8.39,0,0,0-6.84,3.09,16.44,16.44,0,0,0,0,18.75,8.83,8.83,0,0,0,13.44,0,15,15,0,0,0,2.92-9.33A17.62,17.62,0,0,0,307.25,180.32ZM299,195.54c-3.37,0-5.64-3.31-5.64-8.28,0-5.14,2.19-8.34,5.74-8.34,3.31,0,5.54,3.34,5.54,8.32S302.38,195.54,299,195.54Z"/><path class="cls-2" d="M1290.86,390.3V426h-4.67V394.17h-11.81V405c0,7.74-.32,16.38-5.36,19.77a10.68,10.68,0,0,1-5.45,1.69l-.59-3.7a7.85,7.85,0,0,0,3.77-1.91c2.86-2.81,3.12-9.75,3.12-15.48V390.3Z"/><path class="cls-2" d="M1329.39,407.79c0,12.29-7.48,18.81-16.59,18.81-9.43,0-16.06-7.31-16.06-18.12,0-11.34,7-18.76,16.59-18.76C1323.08,389.72,1329.39,397.19,1329.39,407.79Zm-27.72.58c0,7.63,4.13,14.47,11.39,14.47s11.45-6.73,11.45-14.84c0-7.1-3.71-14.52-11.39-14.52S1301.67,400.53,1301.67,408.37Z"/><path class="cls-2" d="M1354.35,390.3v3.87H1340V426h-4.61V390.3Z"/><path class="cls-2" d="M1362.67,390.3v15.05c0,5.62-.1,10.34-.42,15.11l.11.05c1.8-3.71,4-7.58,6.62-11.82l11.55-18.39h4.61V426h-4.34V410.81c0-5.77,0-10,.42-14.52l-.16-.05a109.25,109.25,0,0,1-6.62,12L1363.26,426h-4.93V390.3Z"/><path class="cls-2" d="M1418.16,424.85a22.65,22.65,0,0,1-9.43,1.75c-10.07,0-17.65-6.41-17.65-18.12,0-11.18,7.58-18.76,18.66-18.76a19,19,0,0,1,8.47,1.59l-1.11,3.76a16.78,16.78,0,0,0-7.21-1.48c-8.37,0-13.93,5.35-13.93,14.73,0,8.74,5,14.36,13.72,14.36a18.51,18.51,0,0,0,7.53-1.48Z"/><path class="cls-2" d="M1432.58,394.22h-10.87V390.3h26.45v3.92h-10.92V426h-4.66Z"/><path class="cls-2" d="M1456.48,390.3v15.05c0,5.62-.1,10.34-.42,15.11l.1.05c1.81-3.71,4-7.58,6.63-11.82l11.55-18.39H1479V426h-4.34V410.81c0-5.77.05-10,.42-14.52l-.16-.05a110.94,110.94,0,0,1-6.62,12L1457.06,426h-4.92V390.3Z"/><path class="cls-2" d="M1491.57,390.3v15.85H1493l12.24-15.85h5.56l-13.51,16.38c5.88.79,8.16,4.4,10,9.22a92.37,92.37,0,0,0,3.92,10.12h-5a63.07,63.07,0,0,1-3.24-8.43c-1.64-4.71-3.92-7.94-10-7.94h-1.48V426H1487V390.3Z"/><path class="cls-2" d="M1521.78,414.79,1518.07,426h-4.77l12.13-35.72H1531L1543.19,426h-4.93l-3.82-11.23Zm11.71-3.61L1530,400.9c-.8-2.33-1.33-4.45-1.86-6.52h-.1c-.53,2.12-1.11,4.3-1.8,6.47l-3.5,10.33Z"/><path class="cls-2" d="M1289,455.54v15c0,5.62-.1,10.33-.42,15.1l.11.05c1.8-3.71,4-7.57,6.62-11.81l11.55-18.39h4.61v35.71h-4.34v-15.2c0-5.78,0-10,.42-14.52l-.16-.06a108.35,108.35,0,0,1-6.62,12l-11.18,17.75h-4.93V455.54Z"/><path class="cls-2" d="M1360.87,475.57c-.27-5-.59-11-.53-15.42h-.16c-1.22,4.18-2.7,8.69-4.51,13.56l-6.3,17.33h-3.5l-5.78-17c-1.69-5-3.12-9.64-4.13-13.88h-.11c-.1,4.45-.37,10.44-.68,15.79l-1,15.31h-4.4l2.49-35.71h5.89l6.09,17.27c1.48,4.4,2.7,8.32,3.6,12h.16c.9-3.6,2.18-7.52,3.77-12l6.35-17.27h5.89l2.22,35.71h-4.5Z"/><path class="cls-2" d="M1403.9,473c0,12.29-7.47,18.81-16.58,18.81-9.44,0-16.06-7.32-16.06-18.13,0-11.34,7-18.76,16.59-18.76C1397.6,455,1403.9,462.43,1403.9,473Zm-27.71.58c0,7.63,4.13,14.47,11.39,14.47s11.45-6.74,11.45-14.84c0-7.1-3.71-14.52-11.4-14.52S1376.19,465.76,1376.19,473.61Z"/><path class="cls-2" d="M1414.51,455.54v14.94h17.27V455.54h4.66v35.71h-4.66V474.51h-17.27v16.74h-4.62V455.54Z"/><path class="cls-2" d="M1451.23,459.46h-10.86v-3.92h26.44v3.92H1455.9v31.79h-4.67Z"/><path class="cls-2" d="M1472.27,480l-3.7,11.23h-4.77l12.13-35.71h5.57l12.18,35.71h-4.92L1484.94,480Zm11.72-3.6-3.5-10.28c-.8-2.34-1.33-4.46-1.86-6.52h-.1c-.53,2.12-1.11,4.29-1.8,6.46l-3.5,10.34Z"/><path class="cls-2" d="M1502.43,455.54l11.08,15.84h1.38V455.54h4.5v15.84h1.43l11-15.84h5.41L1524.58,472c5.62.59,7.9,4.09,9.65,9.17,1.22,3.39,2.07,6.84,3.55,10.12h-4.72c-1.22-2.38-2.06-5.82-3-8.37-1.65-4.87-3.45-8-9.17-8h-1.54v16.37h-4.5V474.88h-1.59c-5.73,0-7.53,3.13-9.22,8a73,73,0,0,1-2.87,8.37h-4.71a106.59,106.59,0,0,0,3.55-10.06c1.8-5,4.08-8.54,9.64-9.23L1497,455.54Z"/><path class="cls-2" d="M1638,6.17a39,39,0,0,1,39,39V497.74a39,39,0,0,1-39,39H1185.47a39,39,0,0,1-39-39V45.18a39,39,0,0,1,39-39H1638M1638,4H1185.47a41.18,41.18,0,0,0-41.18,41.18V497.74a41.18,41.18,0,0,0,41.18,41.18H1638a41.18,41.18,0,0,0,41.18-41.18V45.18A41.18,41.18,0,0,0,1638,4Z"/><path class="cls-4" d="M1322.53,232.55a38.84,38.84,0,1,0,38.83,38.83A38.88,38.88,0,0,0,1322.53,232.55Zm0,65.87a27,27,0,1,1,27-27A27.07,27.07,0,0,1,1322.53,298.42Z"/><path class="cls-4" d="M1322.53,255.16a16.23,16.23,0,1,0,16.22,16.22A16.23,16.23,0,0,0,1322.53,255.16Z"/><path class="cls-4" d="M1521.06,232.55a38.84,38.84,0,1,0,38.84,38.83A38.88,38.88,0,0,0,1521.06,232.55Zm0,65.87a27,27,0,1,1,27-27A27.07,27.07,0,0,1,1521.06,298.42Z"/><path class="cls-4" d="M1521.06,255.16a16.23,16.23,0,1,0,16.23,16.22A16.22,16.22,0,0,0,1521.06,255.16Z"/><path class="cls-5" d="M1595.13,155.05l-32.56-13.65c-4.15-7.41-19.92-34.76-32.32-45.53a5.91,5.91,0,0,0-3.87-1.44h-48.29V62.15a5.9,5.9,0,0,0-5.9-5.9H1234.64a5.9,5.9,0,0,0-5.89,5.9V206.21a5.9,5.9,0,0,0,5.89,5.9h10.25v43a5.9,5.9,0,0,0,5.9,5.89h26a5.9,5.9,0,0,0,5.56-3.92,42.62,42.62,0,0,1,80.34,0,5.87,5.87,0,0,0,5.55,3.92h107.09a5.87,5.87,0,0,0,5.55-3.92,42.62,42.62,0,0,1,80.34,0,5.89,5.89,0,0,0,5.56,3.92h26.07a5.89,5.89,0,0,0,5.89-5.89V160.49A5.88,5.88,0,0,0,1595.13,155.05Zm-117-48.83h45.9c12.38,12.06,29,42.34,29.15,42.65a5.88,5.88,0,0,0,2.9,2.62L1587,164.41V201H1478.18Zm-237.64,14.7h228v62.63h-228Zm228,18h-228m0,61.39V192h225.75v8.34ZM1587,249.26h-16.18a54.41,54.41,0,0,0-99.43,0h-99.11a54.41,54.41,0,0,0-99.43,0h-16.12V212.77H1587Z"/><path class="cls-4" d="M1516.43,116.39h-31.07v36.84h57.36l-.31-.52C1536,141.93,1524.78,125.42,1516.43,116.39Z"/><rect class="cls-4" x="1493.71" y="167.24" width="18.68" height="6.79"/><path class="cls-6" d="M1299.29,255.38q0-34.8,0-69.6c0-1.1-.07-1.87-1.39-2.36-15.39-5.78-25-17-30-32.38a79.59,79.59,0,0,1-3.7-24.6,21.37,21.37,0,0,1,1.33-6.29c.77-2.46,4.51-4.46,6.89-4.42,6.2.11,9.52,3.51,9.58,9.77.08,8.93,1.17,17.67,5.22,25.78,5.63,11.23,15,16.89,27.33,17.47a90.65,90.65,0,0,0,17-.4c13-1.88,21.37-9.73,25.61-22a65.21,65.21,0,0,0,3.15-21.35c0-4.66,2.85-8.28,7-9.13,5.4-1.11,10.68,2.5,10.76,8,.22,15.06-2.23,29.53-11.06,42.25a45.7,45.7,0,0,1-21.82,17,2.85,2.85,0,0,0-2.24,3.19q.21,68.79.25,137.58a15.58,15.58,0,0,1-.66,4.77,9.57,9.57,0,0,1-10.44,6.53,10.09,10.09,0,0,1-8.68-8.86,25,25,0,0,1-.09-2.6q0-31.06,0-62.13c0-2.65-.69-3.82-2.24-3.78s-2.14,1.16-2.14,3.71l0,63c0,7.23-6,12.16-12.67,10.36-4.34-1.18-7.22-5.13-7.22-10.08,0-10.12,0-20.24,0-30.37V255.38Z"/><path class="cls-6" d="M1302.47,146.47A18.67,18.67,0,1,1,1321,165.26,18.56,18.56,0,0,1,1302.47,146.47Z"/><path class="cls-2" d="M1066,6.17a39,39,0,0,1,39,39V497.74a39,39,0,0,1-39,39H613.47a39,39,0,0,1-39-39V45.18a39,39,0,0,1,39-39H1066M1066,4H613.47a41.18,41.18,0,0,0-41.18,41.18V497.74a41.18,41.18,0,0,0,41.18,41.18H1066a41.18,41.18,0,0,0,41.18-41.18V45.18A41.18,41.18,0,0,0,1066,4Z"/><path class="cls-2" d="M708.29,390.3V426h-4.61V394.17H687.1V426h-4.61V390.3Z"/><path class="cls-2" d="M746.88,407.79c0,12.29-7.48,18.81-16.59,18.81-9.43,0-16.06-7.31-16.06-18.12,0-11.34,7-18.76,16.59-18.76C740.57,389.72,746.88,397.19,746.88,407.79Zm-27.72.58c0,7.63,4.13,14.47,11.39,14.47S742,416.11,742,408c0-7.1-3.71-14.52-11.39-14.52S719.16,400.53,719.16,408.37Z"/><path class="cls-2" d="M776.19,390.3v32l3.12.1L779,434.61h-3.61l-.32-8.59H752.55l-.32,8.59h-3.6l-.32-12.25,2.7-.1a42.1,42.1,0,0,0,3.5-7.84c1.22-4.14,1.7-8.91,1.7-15.06V390.3ZM760.5,400.85a48.93,48.93,0,0,1-1.8,14.57,34.85,34.85,0,0,1-2.92,6.79h15.8V394.12H760.5Z"/><path class="cls-2" d="M791.08,414.79,787.37,426H782.6l12.14-35.72h5.56L812.49,426h-4.93l-3.81-11.23Zm11.71-3.61L799.3,400.9c-.8-2.33-1.33-4.45-1.86-6.52h-.11c-.53,2.12-1.11,4.3-1.8,6.47L792,411.18Z"/><path class="cls-2" d="M817.74,390.73a53.56,53.56,0,0,1,8.85-.69c4.56,0,7.9,1.06,10,3a9.59,9.59,0,0,1,3.12,7.47,10.53,10.53,0,0,1-2.75,7.63c-2.44,2.6-6.41,3.92-10.92,3.92a15.59,15.59,0,0,1-3.71-.32V426h-4.61ZM822.35,408a15.75,15.75,0,0,0,3.82.37c5.56,0,9-2.7,9-7.63,0-4.72-3.34-7-8.42-7a18.78,18.78,0,0,0-4.35.38Z"/><path class="cls-2" d="M876,407.79c0,12.29-7.48,18.81-16.59,18.81-9.43,0-16.06-7.31-16.06-18.12,0-11.34,7.05-18.76,16.59-18.76C869.73,389.72,876,397.19,876,407.79Zm-27.72.58c0,7.63,4.14,14.47,11.4,14.47s11.44-6.73,11.44-14.84c0-7.1-3.71-14.52-11.39-14.52S848.32,400.53,848.32,408.37Z"/><path class="cls-2" d="M886,390.3v11.45c0,4.88,2.55,7.68,7.58,7.68a14.14,14.14,0,0,0,7-2.06V390.3h4.66v35.93h-4.66V411h-.11a17.24,17.24,0,0,1-8.58,2.23c-4.72,0-10.55-2-10.55-10.76V390.3Z"/><path class="cls-2" d="M917.91,390.3v14.95h17.28V390.3h4.66V426h-4.66V409.27H917.91V426H913.3V390.3Z"/><path class="cls-2" d="M953.63,414.79,949.92,426h-4.77l12.14-35.72h5.56L975,426h-4.93l-3.81-11.23Zm11.71-3.61-3.49-10.28c-.8-2.33-1.33-4.45-1.86-6.52h-.11c-.53,2.12-1.11,4.3-1.8,6.47l-3.5,10.33Z"/><path class="cls-2" d="M977.06,426a23.58,23.58,0,0,0,1.43-3.23c1.54-4.08,2.49-9.06,5.4-12a7.25,7.25,0,0,1,3-1.8v-.16c-4.4-.74-7.89-3.92-7.89-8.8a9.12,9.12,0,0,1,3.28-7.26C984.48,391,988,390,992.48,390a45.39,45.39,0,0,1,8.53.74V426H996.4V410.55H993a6.75,6.75,0,0,0-5.14,1.74c-2.44,2.5-3.45,7.74-4.72,11.13A21.49,21.49,0,0,1,982,426Zm19.34-31.95a17,17,0,0,0-4.34-.48c-4.56,0-8.43,1.75-8.43,6.68,0,4.29,3.81,6.78,8.85,6.78,1.54,0,3,0,3.92-.05Z"/><path class="cls-2" d="M614.91,455.54v15c0,5.62-.1,10.33-.42,15.1l.1.05c1.81-3.71,4-7.57,6.63-11.81l11.55-18.39h4.61v35.71H633v-15.2c0-5.78.05-10,.42-14.52l-.16-.06a110,110,0,0,1-6.62,12l-11.19,17.75h-4.92V455.54Z"/><path class="cls-2" d="M682.48,455.54v35.71h-4.61V459.41H661.29v31.84h-4.62V455.54Z"/><path class="cls-2" d="M690.54,456a53.56,53.56,0,0,1,8.85-.69c4.56,0,7.9,1.06,10,3a9.6,9.6,0,0,1,3.12,7.47,10.51,10.51,0,0,1-2.75,7.63c-2.44,2.6-6.41,3.92-10.92,3.92a16.16,16.16,0,0,1-3.71-.31v14.3h-4.61Zm4.61,17.22a15.26,15.26,0,0,0,3.82.37c5.56,0,8.95-2.7,8.95-7.63,0-4.71-3.34-7-8.42-7a19.52,19.52,0,0,0-4.35.37Z"/><path class="cls-2" d="M748.84,473c0,12.29-7.47,18.81-16.59,18.81-9.43,0-16.06-7.32-16.06-18.13,0-11.34,7-18.76,16.59-18.76C742.53,455,748.84,462.43,748.84,473Zm-27.72.58c0,7.63,4.14,14.47,11.4,14.47S744,481.34,744,473.24c0-7.1-3.71-14.52-11.39-14.52S721.12,465.76,721.12,473.61Z"/><path class="cls-2" d="M784.77,475.57c-.26-5-.58-11-.53-15.42h-.16c-1.22,4.18-2.7,8.69-4.5,13.56L773.27,491h-3.5L764,474c-1.7-5-3.13-9.64-4.14-13.88h-.1c-.11,4.45-.37,10.44-.69,15.79l-1,15.31h-4.4l2.49-35.71h5.88l6.1,17.27c1.48,4.4,2.7,8.32,3.6,12H772c.9-3.6,2.17-7.52,3.76-12l6.36-17.27H788l2.23,35.71h-4.51Z"/><path class="cls-2" d="M827.81,473c0,12.29-7.48,18.81-16.59,18.81-9.43,0-16.06-7.32-16.06-18.13,0-11.34,7.05-18.76,16.59-18.76C821.5,455,827.81,462.43,827.81,473Zm-27.72.58c0,7.63,4.14,14.47,11.4,14.47s11.44-6.74,11.44-14.84c0-7.1-3.71-14.52-11.39-14.52S800.09,465.76,800.09,473.61Z"/><path class="cls-2" d="M834,455.54l7.1,15.26c.9,2.12,1.75,4.24,2.6,6.31h.11c.63-1.81,1.32-3.93,2.22-6.42l5.57-15.15h4.87L849,473.93c-2,4.82-4.19,10.28-6.68,13.56-2.33,2.92-4.93,4.4-8.11,4.4a7.7,7.7,0,0,1-2.59-.32l.47-3.76a6.4,6.4,0,0,0,1.7.16c3.71,0,5.88-3.55,7-6.15a2.07,2.07,0,0,0-.16-2.12l-11.87-24.16Z"/><path class="cls-2" d="M886.11,455.54v35.71H881.5V459.41H864.91v31.84H860.3V455.54Z"/><path class="cls-2" d="M899.94,480l-3.71,11.23h-4.77l12.14-35.71h5.56l12.19,35.71h-4.93L912.61,480Zm11.71-3.6-3.49-10.28c-.8-2.34-1.33-4.46-1.86-6.52h-.1c-.53,2.12-1.12,4.29-1.81,6.46l-3.49,10.34Z"/><path class="cls-2" d="M931.16,455.54v15.84h1.43l12.24-15.84h5.57l-13.52,16.37c5.89.8,8.16,4.4,10,9.22a91.59,91.59,0,0,0,3.92,10.12h-5a62.4,62.4,0,0,1-3.23-8.42c-1.65-4.72-3.92-7.95-10-7.95h-1.48v16.37H926.6V455.54Z"/><path class="cls-2" d="M984.85,473c0,12.29-7.48,18.81-16.59,18.81-9.43,0-16.06-7.32-16.06-18.13,0-11.34,7-18.76,16.59-18.76C978.54,455,984.85,462.43,984.85,473Zm-27.72.58c0,7.63,4.13,14.47,11.39,14.47S980,481.34,980,473.24c0-7.1-3.71-14.52-11.39-14.52S957.13,465.76,957.13,473.61Z"/><path class="cls-2" d="M990.84,456a45,45,0,0,1,8.42-.74c4.61,0,7.58.8,9.81,2.6a7.51,7.51,0,0,1,3,6.3c0,3.45-2.28,6.47-6,7.85v.1c3.4.85,7.37,3.66,7.37,9a9.62,9.62,0,0,1-3,7.15c-2.49,2.28-6.52,3.34-12.35,3.34a54.23,54.23,0,0,1-7.15-.42Zm4.61,14.63h4.18c4.88,0,7.74-2.54,7.74-6,0-4.18-3.18-5.83-7.84-5.83a19.63,19.63,0,0,0-4.08.32Zm0,17.12a24.51,24.51,0,0,0,3.87.21c4.77,0,9.16-1.75,9.16-6.94,0-4.88-4.18-6.89-9.22-6.89h-3.81Z"/><path class="cls-2" d="M1024.12,455.54v15.84h1.43l12.24-15.84h5.57l-13.52,16.37c5.89.8,8.16,4.4,10,9.22a91.59,91.59,0,0,0,3.92,10.12h-5a62.4,62.4,0,0,1-3.23-8.42c-1.65-4.72-3.92-7.95-10-7.95h-1.48v16.37h-4.56V455.54Z"/><path class="cls-2" d="M1054.33,480l-3.71,11.23h-4.77L1058,455.54h5.56l12.19,35.71h-4.93L1067,480Zm11.71-3.6-3.5-10.28c-.79-2.34-1.32-4.46-1.85-6.52h-.11c-.53,2.12-1.11,4.29-1.8,6.46l-3.5,10.34Z"/><polygon class="cls-7" points="819.09 139.09 815.84 294.35 765.45 335.25 694.01 310.85 690.99 158.05 725.51 120.06 724.06 77.76 731.6 66.69 765.52 56.25 775.99 63.12 776.74 97.24 819.09 139.09"/><polyline class="cls-7" points="690.99 158.05 765.62 174.67 819.09 139.09"/><line class="cls-7" x1="765.62" y1="174.67" x2="765.45" y2="335.25"/><polyline class="cls-7" points="765.62 174.67 725.51 120.06 776.75 98.23"/><polyline class="cls-7" points="764.07 103.62 763.17 77.24 738.35 85.32 739.32 113.72"/><line class="cls-7" x1="733.93" y1="134.73" x2="693.12" y2="157.53"/><path class="cls-7" d="M965.13,171.33s20.71,27.56,23.94,44.86,0,83.92,0,83.92L913,332.8l-61.42-30.24V231.09s0-33.21,12.94-51.45,21-25,21-25l56.37,23.06,23.25-6.35-57.45-22.39-22.17,5.68"/><path class="cls-7" d="M884.57,192.24l18.21,7.39s7.8,2,12.19-4.12c3.23-4.52,1.77-10-4.28-12.39s-19.21-7.53-19.21-7.53-7-2.46-10.7,3.37a9.06,9.06,0,0,0,.86,11.18Z"/><path class="cls-7" d="M913,332.8l.29-84s0-20.33,9.45-39.85c6.78-13.35,19.1-31.23,19.1-31.23"/><path class="cls-7" d="M990.29,230.87s-5.15-23.19-21.09-38c-13.35-12.38-22.33-16.57-22.33-16.57"/><path class="cls-7" d="M914.35,237.26s-4.78,5.55-9.84,6.57c-20.45,4.1-38.73-8.27-46.11-17.58-4.62-5.84-4.62-17.48-4.62-17.48"/></svg>