<svg id="Слой_1" data-name="Слой 1" xmlns="http://www.w3.org/2000/svg" viewBox="0 0 1680 541"><defs><style>.cls-1{fill:#004a8f;}.cls-2{fill:#fff;}.cls-3,.cls-4{fill:none;stroke:#fff;stroke-linecap:round;stroke-linejoin:round;}.cls-3{stroke-width:3.26px;}.cls-4{stroke-width:3.44px;}</style></defs><rect class="cls-1" width="1680" height="541"/><path class="cls-2" d="M1066.29,3.3a41.18,41.18,0,0,1,41.18,41.18V497a41.18,41.18,0,0,1-41.18,41.18H613.73A41.18,41.18,0,0,1,572.55,497V44.48A41.18,41.18,0,0,1,613.73,3.3h452.56m0-2.17H613.73a43.41,43.41,0,0,0-43.36,43.35V497a43.41,43.41,0,0,0,43.36,43.36h452.56A43.41,43.41,0,0,0,1109.64,497V44.48a43.4,43.4,0,0,0-43.35-43.35Z"/><path class="cls-2" d="M677.08,393.72v31.95l3.12.11L679.89,438h-3.61l-.32-8.59H653.44l-.32,8.59h-3.6l-.32-12.24,2.71-.11a42.44,42.44,0,0,0,3.49-7.84c1.22-4.14,1.7-8.9,1.7-15.05v-9.06Zm-15.69,10.54a49,49,0,0,1-1.8,14.58,34.75,34.75,0,0,1-2.92,6.78h15.8V397.53H661.39Z"/><path class="cls-2" d="M716.08,411.2c0,12.3-7.47,18.82-16.58,18.82-9.44,0-16.06-7.32-16.06-18.13,0-11.34,7-18.76,16.59-18.76C709.78,393.13,716.08,400.61,716.08,411.2Zm-27.71.59c0,7.63,4.13,14.46,11.39,14.46s11.45-6.73,11.45-14.83c0-7.11-3.71-14.52-11.39-14.52S688.37,403.94,688.37,411.79Z"/><path class="cls-2" d="M745.34,393.72v35.71h-4.66V397.58H728.86V408.4c0,7.73-.32,16.37-5.35,19.76a10.72,10.72,0,0,1-5.46,1.7l-.58-3.71a7.73,7.73,0,0,0,3.76-1.91c2.86-2.81,3.13-9.75,3.13-15.47v-15Z"/><path class="cls-2" d="M772.32,393.72v3.86H758v31.85h-4.61V393.72Z"/><path class="cls-2" d="M805,411.2c0,12.3-7.48,18.82-16.59,18.82-9.43,0-16.06-7.32-16.06-18.13,0-11.34,7-18.76,16.59-18.76C798.66,393.13,805,400.61,805,411.2Zm-27.72.59c0,7.63,4.13,14.46,11.39,14.46s11.45-6.73,11.45-14.83c0-7.11-3.71-14.52-11.39-14.52S777.25,403.94,777.25,411.79Z"/><path class="cls-2" d="M835.92,428.27a22.69,22.69,0,0,1-9.43,1.75c-10.07,0-17.65-6.42-17.65-18.13,0-11.18,7.58-18.76,18.65-18.76a19.25,19.25,0,0,1,8.48,1.59l-1.11,3.77a16.77,16.77,0,0,0-7.21-1.49c-8.37,0-13.94,5.35-13.94,14.73,0,8.75,5,14.37,13.73,14.37a18.42,18.42,0,0,0,7.52-1.49Z"/><path class="cls-2" d="M841.7,394.14a53.46,53.46,0,0,1,8.85-.69c4.56,0,7.89,1.06,10,3a9.59,9.59,0,0,1,3.13,7.47,10.48,10.48,0,0,1-2.76,7.63c-2.43,2.6-6.41,3.92-10.91,3.92a16.16,16.16,0,0,1-3.71-.31v14.3H841.7Zm4.61,17.22a15.18,15.18,0,0,0,3.81.37c5.57,0,9-2.7,9-7.63,0-4.71-3.34-7-8.43-7a19.42,19.42,0,0,0-4.34.37Z"/><path class="cls-2" d="M900,411.2c0,12.3-7.47,18.82-16.58,18.82-9.44,0-16.06-7.32-16.06-18.13,0-11.34,7-18.76,16.59-18.76C893.69,393.13,900,400.61,900,411.2Zm-27.71.59c0,7.63,4.13,14.46,11.39,14.46s11.45-6.73,11.45-14.83c0-7.11-3.71-14.52-11.39-14.52S872.28,403.94,872.28,411.79Z"/><path class="cls-2" d="M910,393.72v11.44c0,4.88,2.55,7.69,7.58,7.69a14.08,14.08,0,0,0,7.05-2.07V393.72h4.66v35.93h-4.66V414.38h-.11a17.27,17.27,0,0,1-8.58,2.23c-4.72,0-10.55-2-10.55-10.76V393.72Z"/><path class="cls-2" d="M941.87,393.72v14.94h17.27V393.72h4.67v35.71h-4.67V412.69H941.87v16.74h-4.61V393.72Z"/><path class="cls-2" d="M976.42,393.72v13.35a36.3,36.3,0,0,1,4.24-.26c7.37,0,13.78,3.23,13.78,11.18a10.76,10.76,0,0,1-2.76,7.58c-2.91,3.07-7.89,4.18-12.71,4.18a54.54,54.54,0,0,1-7.16-.42V393.72Zm0,32.16a17.18,17.18,0,0,0,3.71.27c5.09,0,9.49-2.6,9.49-8,0-5.57-4.77-7.69-9.54-7.69a22.32,22.32,0,0,0-3.66.27Zm26.66-32.16v35.71h-4.67V393.72Z"/><path class="cls-2" d="M1029.84,412.69H1016v12.88h15.47v3.86h-20.08V393.72h19.29v3.86H1016v11.29h13.88Z"/><path class="cls-2" d="M778.31,459.37a53.73,53.73,0,0,1,8.85-.68c4.56,0,7.9,1.06,10,3a9.62,9.62,0,0,1,3.12,7.48,10.53,10.53,0,0,1-2.75,7.63c-2.44,2.59-6.42,3.92-10.92,3.92a15.59,15.59,0,0,1-3.71-.32v14.31h-4.61Zm4.61,17.23a15.75,15.75,0,0,0,3.82.37c5.56,0,9-2.7,9-7.63,0-4.72-3.34-7-8.42-7a19.46,19.46,0,0,0-4.35.37Z"/><path class="cls-2" d="M837,476.44c0,12.29-7.47,18.81-16.59,18.81-9.43,0-16.05-7.31-16.05-18.12,0-11.34,7-18.76,16.58-18.76C830.72,458.37,837,465.84,837,476.44Zm-27.72.58c0,7.63,4.14,14.47,11.4,14.47s11.44-6.73,11.44-14.84c0-7.1-3.71-14.52-11.39-14.52S809.31,469.18,809.31,477Z"/><path class="cls-2" d="M842.39,489.05a16.31,16.31,0,0,0,8.26,2.33c4.72,0,7.48-2.49,7.48-6.09,0-3.34-1.91-5.25-6.73-7.1-5.83-2.07-9.44-5.09-9.44-10.12,0-5.57,4.61-9.7,11.55-9.7a16.25,16.25,0,0,1,7.9,1.75l-1.27,3.76a14.18,14.18,0,0,0-6.78-1.7c-4.88,0-6.73,2.92-6.73,5.36,0,3.33,2.17,5,7.1,6.89,6,2.33,9.11,5.24,9.11,10.49,0,5.51-4.08,10.33-12.5,10.33a18.47,18.47,0,0,1-9.12-2.33Z"/><path class="cls-2" d="M899.25,479c-.26-5-.58-11-.53-15.42h-.16c-1.22,4.19-2.7,8.69-4.5,13.57l-6.31,17.33h-3.5l-5.77-17c-1.7-5-3.13-9.65-4.14-13.89h-.1c-.11,4.45-.37,10.44-.69,15.79l-.95,15.32h-4.4L870.69,459h5.88l6.09,17.28c1.49,4.4,2.71,8.32,3.61,12h.16c.9-3.61,2.17-7.53,3.76-12L896.55,459h5.88l2.23,35.72h-4.51Z"/><path class="cls-1" d="M946.64,176.45l-59.81-8.57v-15.3l60-15.38a1.92,1.92,0,0,0-.21-3.76L887.26,125l.15-47.06c.29-2.05,2.08-19.18-16.89-24-19.42-4.94-31.6-7-31.71-7a1.78,1.78,0,0,0-.69,0l-32,6.15c-.17,0-17.06,3.74-16.85,24.77.15,14.21.31,40.93.35,47.74l-52.91,9.77a1.93,1.93,0,0,0-.07,3.77l53,11.78-.32,22.06-55.36,7.84a1.92,1.92,0,0,0-.29,3.74l55.63,16.65v12.61l-56.92,11.69a1.92,1.92,0,0,0-.33,3.66L744.48,234l1.34,69.52a1.91,1.91,0,0,0,1.19,1.74l93.21,37.81h0l.83.34a2,2,0,0,0,.72.14,1.89,1.89,0,0,0,.87-.21l83.82-42.66a1.92,1.92,0,0,0,1.06-1.67l1.11-64.67,15.48-6.23a1.92,1.92,0,0,0-.32-3.66l-57-11.95V199.85L947,180.18a1.92,1.92,0,0,0-.32-3.73Z"/><polygon class="cls-1" points="840.98 263.54 926.74 234.16 925.6 299.01 841.78 341.65 840.98 263.54"/><path class="cls-3" d="M838.49,48.73l-32,6.16S791,58.06,791.19,77.75c.16,16.48.35,49.36.35,49.36l-54.49,10.06,54.49,12.12-.35,25.27-57,8.07,57,17.06V215.3l-58.47,12,13.66,5.42,1.36,70.79,94,38.14L925.6,299l1.14-65.95,16.66-6.7-58.49-12.27V198.46l61.46-20.11-61.46-8.8V151.09l61.46-15.75-61-8.72.16-48.86s3.15-17.27-15.44-22C850.47,50.77,838.49,48.73,838.49,48.73Z"/><polyline class="cls-3" points="746.38 232.72 840.98 263.54 926.74 233.06"/><polyline class="cls-3" points="791.19 200.71 839.09 213.07 884.91 198.46"/><polyline class="cls-3" points="792.27 150.08 839.62 160.67 884.91 151.09"/><polyline class="cls-3" points="791.54 127.11 791.54 148.52 839.54 140.14 884.91 151.09 885.33 126.62"/><polyline class="cls-3" points="791.19 174.56 791.19 200.71 839.09 188.8 884.91 198.46 884.91 169.55"/><line class="cls-3" x1="839.8" y1="48.99" x2="839.54" y2="140.14"/><line class="cls-3" x1="839.62" y1="160.67" x2="839.62" y2="189.36"/><line class="cls-3" x1="839.09" y1="213.07" x2="839.09" y2="233.11"/><polyline class="cls-3" points="791.19 215.3 791.58 247.32 839.09 233.11 884.91 246.44 884.91 210.47"/><line class="cls-3" x1="840.98" y1="341.33" x2="840.98" y2="263.54"/><path class="cls-2" d="M1636.29,3.3a41.18,41.18,0,0,1,41.18,41.18V497a41.18,41.18,0,0,1-41.18,41.18H1183.73A41.18,41.18,0,0,1,1142.55,497V44.48A41.18,41.18,0,0,1,1183.73,3.3h452.56m0-2.17H1183.73a43.41,43.41,0,0,0-43.36,43.35V497a43.41,43.41,0,0,0,43.36,43.36h452.56A43.41,43.41,0,0,0,1679.64,497V44.48a43.4,43.4,0,0,0-43.35-43.35Z"/><path class="cls-2" d="M1319.16,393.72v35.71h-4.61V397.58H1298v31.85h-4.61V393.72Z"/><path class="cls-2" d="M1345.72,412.69h-13.89v12.88h15.48v3.86h-20.09V393.72h19.29v3.86h-14.68v11.29h13.89Z"/><path class="cls-2" d="M1357,393.72v11.44c0,4.88,2.54,7.69,7.57,7.69a14,14,0,0,0,7-2.07V393.72h4.67v35.93h-4.67V414.38h-.1a17.28,17.28,0,0,1-8.59,2.23c-4.72,0-10.54-2-10.54-10.76V393.72Z"/><path class="cls-2" d="M1390,418.2l-3.71,11.23h-4.77l12.13-35.71h5.57l12.19,35.71h-4.93l-3.82-11.23Zm11.71-3.6-3.5-10.29c-.79-2.33-1.32-4.45-1.85-6.51h-.11c-.53,2.12-1.11,4.29-1.8,6.46L1391,414.6Z"/><path class="cls-2" d="M1421.14,397.64h-10.87v-3.92h26.45v3.92H1425.8v31.79h-4.66Z"/><path class="cls-2" d="M1445.31,393.72v14.94h17.27V393.72h4.67v35.71h-4.67V412.69h-17.27v16.74h-4.61V393.72Z"/><path class="cls-2" d="M1481,418.2l-3.71,11.23h-4.77l12.13-35.71h5.57l12.19,35.71h-4.93l-3.82-11.23Zm11.71-3.6-3.5-10.29c-.79-2.33-1.32-4.45-1.85-6.51h-.11c-.53,2.12-1.11,4.29-1.8,6.46L1482,414.6Z"/><path class="cls-2" d="M1504.46,429.43a24.28,24.28,0,0,0,1.43-3.23c1.53-4.08,2.49-9.06,5.4-12a7.36,7.36,0,0,1,3-1.8v-.16c-4.4-.74-7.9-3.92-7.9-8.79a9.07,9.07,0,0,1,3.29-7.26c2.22-1.81,5.72-2.76,10.23-2.76a46.24,46.24,0,0,1,8.53.74v35.24h-4.61V414h-3.39a6.76,6.76,0,0,0-5.14,1.75c-2.44,2.49-3.45,7.74-4.72,11.13a21.5,21.5,0,0,1-1.17,2.59Zm19.34-31.95a17.59,17.59,0,0,0-4.35-.48c-4.55,0-8.42,1.75-8.42,6.68,0,4.29,3.81,6.78,8.85,6.78,1.53,0,3,0,3.92,0Z"/><path class="cls-2" d="M1298.34,459v35.72h-4.61V462.82h-16.59v31.85h-4.61V459Z"/><path class="cls-2" d="M1306.39,459.37a53.83,53.83,0,0,1,8.85-.68c4.56,0,7.9,1.06,10,3a9.63,9.63,0,0,1,3.13,7.48,10.53,10.53,0,0,1-2.76,7.63c-2.44,2.59-6.41,3.92-10.92,3.92a15.5,15.5,0,0,1-3.7-.32v14.31h-4.62ZM1311,476.6a15.61,15.61,0,0,0,3.81.37c5.57,0,9-2.7,9-7.63,0-4.72-3.34-7-8.43-7a19.42,19.42,0,0,0-4.34.37Z"/><path class="cls-2" d="M1364.69,476.44c0,12.29-7.47,18.81-16.59,18.81-9.43,0-16-7.31-16-18.12,0-11.34,7-18.76,16.58-18.76C1358.38,458.37,1364.69,465.84,1364.69,476.44ZM1337,477c0,7.63,4.13,14.47,11.39,14.47s11.45-6.73,11.45-14.84c0-7.1-3.71-14.52-11.4-14.52S1337,469.18,1337,477Z"/><path class="cls-2" d="M1394,459v32l3.13.1-.32,12.24h-3.6l-.32-8.58h-22.52l-.32,8.58h-3.61l-.31-12.24,2.7-.1a42.56,42.56,0,0,0,3.5-7.85c1.21-4.13,1.69-8.9,1.69-15.05V459Zm-15.69,10.55a48.93,48.93,0,0,1-1.8,14.57,34.75,34.75,0,0,1-2.91,6.78h15.79V462.77h-11.08Z"/><path class="cls-2" d="M1404.07,459l7.1,15.26c.91,2.12,1.75,4.24,2.6,6.31h.11c.63-1.8,1.32-3.92,2.22-6.41l5.57-15.16h4.87l-7.47,18.39c-2,4.82-4.19,10.28-6.68,13.57-2.33,2.91-4.93,4.39-8.1,4.39a8.05,8.05,0,0,1-2.6-.31l.48-3.77a6.26,6.26,0,0,0,1.69.16c3.71,0,5.88-3.55,7-6.14a2.07,2.07,0,0,0-.16-2.12L1398.83,459Z"/><path class="cls-2" d="M1434.92,459V474.8h1.43L1448.59,459h5.57l-13.52,16.38c5.88.79,8.16,4.39,10,9.22a93.16,93.16,0,0,0,3.92,10.12h-5a63.06,63.06,0,0,1-3.23-8.43c-1.65-4.71-3.93-7.95-10-7.95h-1.48v16.38h-4.56V459Z"/><path class="cls-2" d="M1463.7,459V490.8h16.37V459h4.67v32l3.12.1-.32,12.24h-3.65l-.32-8.58h-24.48V459Z"/><path class="cls-2" d="M1498,459V474c0,5.62-.11,10.33-.43,15.1l.11.06c1.8-3.71,4-7.58,6.62-11.82L1515.85,459h4.61v35.72h-4.35V479.46c0-5.78.05-10,.43-14.52l-.16-.05a109.37,109.37,0,0,1-6.63,12l-11.18,17.75h-4.93V459Z"/><path class="cls-2" d="M1525.28,494.67a22.92,22.92,0,0,0,1.43-3.23c1.54-4.09,2.49-9.07,5.41-12a7.15,7.15,0,0,1,3-1.8v-.16c-4.4-.74-7.9-3.92-7.9-8.8a9.07,9.07,0,0,1,3.29-7.26c2.22-1.8,5.72-2.75,10.22-2.75a45.5,45.5,0,0,1,8.54.74v35.24h-4.61V479.19h-3.4a6.78,6.78,0,0,0-5.14,1.75c-2.43,2.49-3.44,7.74-4.71,11.13a22.34,22.34,0,0,1-1.17,2.6Zm19.35-32a17.72,17.72,0,0,0-4.35-.47c-4.56,0-8.43,1.74-8.43,6.67,0,4.3,3.82,6.79,8.85,6.79,1.54,0,3,0,3.93-.06Z"/><path class="cls-4" d="M1393.86,133s11.62-17.1,33.43-21.75,42.45,2.07,42.45,2.07l36.34,46.58s-31.14-2.15-43,.82c-18,4.53-32.16,20.27-32.16,20.27Z"/><path class="cls-4" d="M1440.76,211.78s11-15.9,30.67-14.84c0,0,34.77,35.25,22.84,37.33-15.59,2.71-23.87,16.46-23.87,16.46Z"/><path class="cls-4" d="M1478.48,178.74s27.55-5.78,37.78-1.65c6.61,2.67,57.08,54.57,39,52.78a245.65,245.65,0,0,0-36.52-.46Z"/><path class="cls-4" d="M1194.8,96.93s41-19,83.73-17.63c31.91,1,47.93,7.84,66,21.73,14.52,11.14,22.07,21.69,22.07,21.69s8.05-35.28,50.27-38c43.68-2.8,66.63,9.8,66.63,9.8L1626,275.47s-79.48-28.56-125.7,8.64c-9.17,7.38-32,36.13-32,36.13S1447,224,1359,225.68c-25.28.49-52.41,20.85-52.41,20.85Z"/><line class="cls-4" x1="1385.13" y1="228.99" x2="1468.25" y2="320.24"/><path class="cls-4" d="M1309.05,191s24.87-13.45,54.09-7.35,50.51,28,50.51,28"/><path class="cls-4" d="M1287.26,158.24s20.18-14,53.42-8.33c25,4.29,50.78,25.29,50.78,25.29"/><path class="cls-4" d="M1263.87,121.91s17.7-15.13,53.28-9c25.66,4.43,50.77,24.59,50.77,24.59"/><path class="cls-4" d="M1394.28,132.47s11.62-17.1,33.42-21.73,42.46,2.06,42.46,2.06l36.34,46.59s-31.14-2.16-43,.81c-18,4.53-32.16,20.27-32.16,20.27"/><path class="cls-4" d="M1441.18,211.25s11-15.91,30.66-14.84c0,0,34.77,35.25,22.85,37.33-15.59,2.71-23.87,16.46-23.87,16.46"/><path class="cls-4" d="M1478.9,178.2s27.55-5.77,37.78-1.64c6.61,2.67,57.08,54.56,39,52.78a245.5,245.5,0,0,0-36.51-.46"/><path class="cls-2" d="M496.27,2.78A41.18,41.18,0,0,1,537.45,44V496.52a41.18,41.18,0,0,1-41.18,41.18H43.71A41.18,41.18,0,0,1,2.53,496.52V44A41.18,41.18,0,0,1,43.71,2.78H496.27m0-2.18H43.71A43.41,43.41,0,0,0,.36,44V496.52a43.4,43.4,0,0,0,43.35,43.35H496.27a43.41,43.41,0,0,0,43.36-43.35V44A43.41,43.41,0,0,0,496.27.6Z"/><path class="cls-2" d="M215.9,393.72v35.71h-4.66V397.58H199.42V408.4c0,7.73-.32,16.37-5.35,19.76a10.76,10.76,0,0,1-5.46,1.7l-.59-3.71a7.77,7.77,0,0,0,3.77-1.91c2.86-2.81,3.12-9.75,3.12-15.47v-15Z"/><path class="cls-2" d="M242.4,412.69H228.51v12.88H244v3.86H223.9V393.72h19.29v3.86H228.51v11.29H242.4Z"/><path class="cls-2" d="M269,393.72v3.86H254.59v31.85H250V393.72Z"/><path class="cls-2" d="M277.49,393.72v15.84h1.43l12.24-15.84h5.56l-13.51,16.37c5.88.8,8.16,4.4,10,9.22a92.37,92.37,0,0,0,3.92,10.12h-5a62.41,62.41,0,0,1-3.24-8.42c-1.64-4.72-3.92-7.95-10-7.95h-1.48v16.37h-4.56V393.72Z"/><path class="cls-2" d="M306,393.72v15c0,5.61-.11,10.33-.42,15.1l.1.05c1.8-3.71,4-7.58,6.63-11.82l11.55-18.38h4.61v35.71h-4.35V414.22c0-5.77.06-10,.43-14.52l-.16-.05a108.47,108.47,0,0,1-6.63,12l-11.18,17.75h-4.93V393.72Z"/><path class="cls-2" d="M355,412.69H341.14v12.88h15.47v3.86H336.53V393.72h19.29v3.86H341.14v11.29H355Z"/><path class="cls-2" d="M205.17,459.37a53.63,53.63,0,0,1,8.85-.68c4.56,0,7.89,1.06,10,3a9.63,9.63,0,0,1,3.13,7.48,10.53,10.53,0,0,1-2.75,7.63c-2.44,2.59-6.42,3.92-10.92,3.92a15.59,15.59,0,0,1-3.71-.32v14.31h-4.61Zm4.61,17.23a15.72,15.72,0,0,0,3.81.37c5.57,0,9-2.7,9-7.63,0-4.72-3.34-7-8.43-7a19.42,19.42,0,0,0-4.34.37Z"/><path class="cls-2" d="M263.89,476.44c0,12.29-7.47,18.81-16.59,18.81-9.43,0-16.06-7.31-16.06-18.12,0-11.34,7-18.76,16.59-18.76C257.58,458.37,263.89,465.84,263.89,476.44Zm-27.72.58c0,7.63,4.14,14.47,11.4,14.47S259,484.76,259,476.65c0-7.1-3.71-14.52-11.39-14.52S236.17,469.18,236.17,477Z"/><path class="cls-2" d="M269.25,489.05a16.31,16.31,0,0,0,8.26,2.33c4.72,0,7.47-2.49,7.47-6.09,0-3.34-1.9-5.25-6.73-7.1-5.83-2.07-9.43-5.09-9.43-10.12,0-5.57,4.61-9.7,11.55-9.7a16.25,16.25,0,0,1,7.9,1.75L287,463.88a14.19,14.19,0,0,0-6.79-1.7c-4.87,0-6.73,2.92-6.73,5.36,0,3.33,2.18,5,7.11,6.89,6,2.33,9.11,5.24,9.11,10.49,0,5.51-4.08,10.33-12.51,10.33a18.46,18.46,0,0,1-9.11-2.33Z"/><path class="cls-2" d="M326.11,479c-.26-5-.58-11-.53-15.42h-.16c-1.22,4.19-2.7,8.69-4.5,13.57l-6.31,17.33h-3.5l-5.77-17c-1.7-5-3.13-9.65-4.14-13.89h-.1c-.11,4.45-.37,10.44-.69,15.79l-1,15.32h-4.39L297.55,459h5.88l6.09,17.28c1.49,4.4,2.71,8.32,3.61,12h.16c.9-3.61,2.17-7.53,3.76-12L323.41,459h5.88l2.23,35.72H327Z"/><path class="cls-3" d="M356.86,241.47c4.08,39.09-23.87,73.79-62.42,77.49s-73.11-25-77.19-64.1,23.86-73.81,62.41-77.5S352.77,202.36,356.86,241.47Z"/><path class="cls-3" d="M215.5,144.4l-42.95,4.84a6.55,6.55,0,0,1-7.46-6l-.92-14.91a7.36,7.36,0,0,1,6.6-7.58l42.95-4.84a6.53,6.53,0,0,1,7.45,6l.93,14.91A7.37,7.37,0,0,1,215.5,144.4Z"/><path class="cls-3" d="M374,239.82c5.07,48.68-29.71,91.87-77.7,96.48s-91-31.13-96.09-79.81,29.7-91.86,77.69-96.46S368.86,191.14,374,239.82Z"/><path class="cls-3" d="M259.16,163.57c-2-15.29-6.47-47.81-10.72-59.65-5.95-16.6-17-32-24.73-40.16-9.34-9.9-19.78-7.22-19.78-7.22"/><path class="cls-3" d="M177.74,120s-1.07-27.56,7.49-43.27c8.67-15.88,18.7-20.15,18.7-20.15l37-2.75s20.27-4.3,37,42.55c5.93,16.59,10.53,48.44,12.22,62.69"/><path class="cls-3" d="M204.09,117s-.12-18.1,3.15-28.21c4.71-14.55,18.23-21.44,18.23-21.44"/></svg>